<?xml version="1.0" encoding="UTF-8"?>
<svg width="223px" height="223px" viewBox="0 0 223 223" version="1.1" xmlns="http://www.w3.org/2000/svg" xmlns:xlink="http://www.w3.org/1999/xlink">
    <!-- Generator: Sketch 53.2 (72643) - https://sketchapp.com -->
    <title>file-icon</title>
    <desc>Created with Sketch.</desc>
    <g id="file-icon" stroke="none" stroke-width="1" fill="none" fill-rule="evenodd">
        <polygon id="Path" fill="#FFFFFF" points="31 8.4296875 31 214.292969 192.0625 214.292969 192.0625 84.2578125 116.234375 8.4296875"></polygon>
        <path d="M108,16.4296875 L39,16.4296875 L39,206.292969 L184.0625,206.292969 L184.0625,91.828125 L116,91.828125 C111.581722,91.828125 108,88.246403 108,83.828125 L108,16.4296875 Z M124,27.509021 L124,75.828125 L172.319104,75.828125 L124,27.509021 Z M23,8.4296875 C23,4.0114095 26.581722,0.4296875 31,0.4296875 L116.234375,0.4296875 C118.356107,0.4296875 120.390938,1.27254222 121.891229,2.77283325 L197.719354,78.6009583 C199.219645,80.1012493 200.0625,82.1360806 200.0625,84.2578125 L200.0625,214.292969 C200.0625,218.711247 196.480778,222.292969 192.0625,222.292969 L31,222.292969 C26.581722,222.292969 23,218.711247 23,214.292969 L23,8.4296875 Z" id="Combined-Shape" fill="#979797" fill-rule="nonzero"></path>
    </g>
</svg>