<svg xmlns="http://www.w3.org/2000/svg" width="136" version="1.1" height="162"><rect id="backgroundrect" width="100%" height="100%" x="0" y="0" fill="none" stroke="none"/>
 
<g class="currentLayer" style=""><title>Layer 1</title><path d="m133.60001670837403,126.25100421905518 c-2.45,5.66 -5.35,10.870000000000001 -8.71,15.66 c-4.58,6.53 -8.33,11.05 -11.22,13.56 c-4.48,4.12 -9.28,6.23 -14.42,6.35 c-3.6900000000000004,0 -8.14,-1.05 -13.32,-3.18 c-5.197,-2.12 -9.973,-3.17 -14.34,-3.17 c-4.58,0 -9.492,1.05 -14.746,3.17 c-5.2620000000000005,2.13 -9.501,3.24 -12.742,3.35 c-4.929,0.21000000000000002 -9.842,-1.96 -14.746,-6.52 c-3.13,-2.73 -7.045,-7.41 -11.735,-14.04 c-5.032,-7.08 -9.169,-15.29 -12.41,-24.65 c-3.471,-10.11 -5.211,-19.9 -5.211,-29.378 c0,-10.857 2.346,-20.221 7.045,-28.068 c3.693,-6.303 8.606,-11.275 14.755,-14.925 s12.793,-5.51 19.948,-5.6290000000000004 c3.915,0 9.049,1.211 15.429,3.591 c6.362,2.388 10.447,3.599 12.238,3.599 c1.339,0 5.877,-1.416 13.57,-4.239 c7.275,-2.6180000000000003 13.415,-3.702 18.445,-3.275 c13.63,1.1 23.87,6.473 30.68,16.153 c-12.19,7.386 -18.22,17.731 -18.1,31.002 c0.11000000000000001,10.337 3.8600000000000003,18.939 11.23,25.769 c3.34,3.17 7.07,5.62 11.22,7.36 c-0.9,2.6100000000000003 -1.85,5.11 -2.8600000000000003,7.51 zm-31.26,-123.01 c0,8.1021 -2.96,15.667 -8.86,22.669 c-7.12,8.324 -15.732,13.134 -25.071,12.375 c-0.11900000000000002,-0.972 -0.18800000000000003,-1.995 -0.18800000000000003,-3.07 c0,-7.7780000000000005 3.386,-16.102 9.399000000000001,-22.908 c3.002,-3.446 6.82,-6.3113 11.45,-8.597 c4.62,-2.2516 8.99,-3.4968 13.1,-3.71 c0.12000000000000001,1.0831 0.17,2.1663 0.17,3.2409 z" id="svg_1" class=""/></g></svg>