<svg height="81" viewBox="0 0 84 81" width="84" xmlns="http://www.w3.org/2000/svg"><g fill="none" fill-rule="evenodd" transform="translate(-13 -8)"><g fill-rule="nonzero"><path d="m91.2432799 46.3486287-7.9601691-7.1155909c-.3621877-.3242677-.8278576-.503174-1.3094478-.503174h-38.7033375c-3.4716287-7.6828051-11.1233413-12.7521554-19.4596285-12.7521554-11.8218462 0-21.43872552 9.824598-21.43872552 21.9007723 0 12.0771909 9.61687932 21.9017889 21.43773052 21.9017889 8.3362872 0 15.9879998-5.0693503 19.4596285-12.753172h5.3362984c.2995014 0 .5950227-.0670898.8636784-.2012695l3.2686444-2.8248614 3.2676495 2.8248614c.5472616.2693759 1.1820851.2693759 1.7273567 0l3.2686444-2.8248614 3.2706345 2.8248614c.5442766.2693759 1.1820851.2693759 1.7253667 0l3.2686444-2.8248614 3.2686445 2.8248614c.5462666.2693759 1.1820851.2693759 1.7273567 0l3.2686445-2.8248614 3.2686444 2.8248614c.2766159.1341797.5701471.2012695.8686535.2012695h.3054715c.4815902 0 .9472601-.1789063 1.3094478-.5031739l7.9601691-7.1155909c.4328342-.386275.6805945-.9433241.6805945-1.5298521s-.2477603-1.1435771-.6805945-1.529852zm-77.6773206 5.9106164c-2.9522926 0-5.35364632-2.4023271-5.35364632-5.3536464 0-2.9522926 2.40135372-5.3536463 5.35364632-5.3536463 2.9522927 0 5.3536464 2.4013537 5.3536464 5.3536463 0 2.9513193-2.4013537 5.3536464-5.3536464 5.3536464z" fill="#b9d9ff" stroke="#2470c8" stroke-width="2" transform="matrix(-.70710678 .70710678 .70710678 .70710678 46.630981 -19.315185)"/><path d="m56.8325202 82.5819395 7.2060822-2.9868217 3.1495653 6.8703476 7.3744902-18.4067203c-3.8314497-.3791338-7.4357884-1.595934-10.3622848-3.5166696z" fill="#b9d9ff" stroke="#2470c8" stroke-width="2"/><path d="m88.25 63c-3.5 2.4960052-7.6563072 3.9520626-12.25 4.1600087l8.75 21.8399913 3.7188072-8.1120713 8.5311928 3.5360617z" fill="#2470c8"/><path d="m94 49.5c0 9.7325354-8.23822 17.5-18.5 17.5s-18.5-7.7674646-18.5-17.5 8.23822-17.5 18.5-17.5 18.5 7.7674646 18.5 17.5z" fill="#b9d9ff" stroke="#2470c8" stroke-width="2"/></g><path d="m83.6997469 60.7540478-7.699977-5.2333715-7.6998619 5.2333715 3.300023-9.1016191-6.599931-4.5508096h7.699977l3.300023-9.1016191 3.300023 9.1016191h7.699977l-6.599931 4.5508096z" fill="#2470c8"/></g></svg>