<svg height="80" viewBox="0 0 115 80" width="115" xmlns="http://www.w3.org/2000/svg"><g fill="none" fill-rule="evenodd"><g fill-rule="nonzero" transform="translate(25 8)"><g fill="#2470c8"><path d="m33 48c-6.688 0-12.6295714-5.373-15.0968571-13.5054-2.2365715-.135-3.9031429-2.9889-3.9031429-6.7446 0-3.8475 1.7507143-6.75 4.0714286-6.75.1275714 0 .3175714.0297.4397143.0648.7464285.0729 1.197.7182 1.121 1.4607s-.8251429 1.2501-1.5797143 1.1907c-.0108572 0-.0271429-.0027-.0407143-.0054-.3827143.1458-1.2974286 1.5633-1.2974286 4.0392 0 2.6136 1.0178572 4.05 1.3571429 4.05.3691428-.2268.8685714-.2943 1.2675714-.1323.4017143.1647.741.4752.8468571.8937 1.9 7.6194 7.049 12.7386 12.8141429 12.7386s10.9141429-5.1192 12.8141429-12.7386c.1058571-.4185.4044285-.7614.8034285-.9234.4017143-.162.8577143-.1242 1.2268572.1026.4451428.0162 1.4412857-1.377 1.4412857-3.9906 0-2.4759-.9147143-3.8934-1.2974286-4.0392-.0135714.0027-.0298571.0027-.0407143.0054-.7382857.0729-1.4114285-.4671-1.4847143-1.2096-.0732857-.7425.4695715-1.404 1.216-1.4769 2.6898572.0027 4.3211429 2.8728 4.3211429 6.7203 0 3.7557-1.6665714 6.6096-3.9031429 6.7446-2.4672857 8.1324-8.4088571 13.5054-15.0968571 13.5054z"/><g transform="translate(20 21)"><path d="m13.2142857 6.5c0 2.691-3.98571427 4.875-7.14285713 4.875s-4.28571428-2.184-4.28571428-4.875-1.13142858-4.875 5.71428571-4.875c6.6085714 0 5.7142857 2.184 5.7142857 4.875z"/><path d="m6.07142857 13c-3.57714286 0-5.71428571-2.431-5.71428571-6.5 0-.312-.01714286-.61425-.03428572-.90675-.06571428-1.17325-.14571428-2.6325.83714286-3.82525 1.03714286-1.2545 2.87428571-1.768 6.34-1.768 3.3342857 0 5.2.52975 6.2457143 1.768 1.0171428 1.209.96 2.72025.9171428 3.93575-.0114285.26-.02.5265-.02.79625 0 4.02675-4.99142853 6.5-8.57142853 6.5zm1.42857143-9.75c-3.38 0-4.11428571.56875-4.25714286.74425-.13714285.16575-.1.78975-.06857143 1.39425.02.3575.04.73125.04 1.1115 0 2.24575.88285715 3.25 2.85714286 3.25 2.76 0 5.71428573-1.90775 5.71428573-3.25 0-.3185.0114286-.6305.0228571-.93275.0257143-.689.0514286-1.34225-.1257143-1.55025-.1942857-.2275-.9914285-.767-4.1828571-.767z"/></g><g transform="translate(31 21)"><path d="m1.82571429 6.5c0 2.691 3.94571428 4.875 7.10285714 4.875 3.15714287 0 4.32571427-2.184 4.32571427-4.875s1.1314286-4.875-5.7142857-4.875c-6.60571429 0-5.71428571 2.184-5.71428571 4.875z"/><path d="m8.92857143 13c-3.56285714 0-8.53142857-2.47325-8.53142857-6.5 0-.26975-.00857143-.53625-.02-.79625-.04571429-1.2155-.10285715-2.72675.91714285-3.93575 1.04571429-1.23825 2.91428572-1.768 6.24571429-1.768 3.4657143 0 5.3028571.5135 6.34 1.768.9828571 1.1895.9 2.64875.8342857 3.822-.0142857.2925-.0342857.598-.0342857.90675.0028571 4.0105-2.2028571 6.50325-5.75142857 6.50325zm-1.38857143-9.75c-3.19142857 0-3.98857143.5395-4.18285714.767-.17714286.208-.15142857.86125-.12571429 1.55025.01142857.30225.02285714.61425.02285714.93275 0 1.34225 2.93428572 3.25 5.67428572 3.25 2.00285717 0 2.89714287-1.00425 2.89714287-3.25 0-.38025.02-.754.04-1.1115.0342857-.6045.0685714-1.2285-.0657143-1.39425-.1457143-.1755-.88-.74425-4.26-.74425z"/></g></g><path d="m48.9041348 11.1477033c8.9828217 1.579515 12.0958652 3.3081187 12.0958652 6.18563 0 5.3828866-12.4449976 7.6666667-28 7.6666667s-28-2.2837801-28-7.6666667c0-2.8775113 3.11304355-4.606115 12.0958652-6.18563 2.4632338-7.0306553 6.4794385-12.1477033 10.5041348-12.1477033 2.0630652 0 3.8734709.69575027 5.4 1.81649333 1.5265291-1.12074306 3.3369348-1.81649333 5.4-1.81649333 4.0246963 0 8.040901 5.117048 10.5041348 12.1477033zm-3.481101 1.0601371.0000917-.0001086c.1063911-.1258488.0909121-.3047547-.0477352-.4273172-.1365358-.1200166-.3787496-.1091428-.527089.0404038-.3986698.3937479-1.2456544.894947-2.6492124 1.3581398-2.199485.7258593-5.220858 1.1543751-9.1990889 1.1543751-3.9117988 0-6.9007622-.4148574-9.0944691-1.1207337-1.4217674-.4574868-2.2894429-.9554745-2.7913093-1.4311733-.1237802-.1373617-.346032-.1538248-.49417-.0321355-.1413874.1159291-.1602246.3199794-.0430854.4585496.0813153.0962146.2540515.2526968.540311.450249.4714886.3253816 1.099307.6502904 1.9054183.9536602 2.3049881.867453 5.5764924 1.3882504 9.9773045 1.3882504s7.6723164-.5207974 9.9773045-1.3882504c.8061113-.3033698 1.4339297-.6282786 1.9054183-.9536602.2862595-.1975522.4589957-.3540344.540311-.450249zm1.5274866 1.2910402c-.0000153.000018-.0000306.0000361-.0000459.0000542l.0000917-.0001085c-.0000153.0000181-.0000305.0000362-.0000458.0000543z" fill="#b9d9ff" stroke="#2470c8" stroke-width="2"/><g fill="#b9d9ff" stroke="#2470c8" stroke-width="2" transform="translate(0 40)"><path d="m24.7995114 17.0951918.0003818.0001855 7.325745 3.5627525c1.1122713.5412044 1.6746681 1.6855974 1.2202854 2.7789646-.4045343.9734185-1.4954516 1.5629056-2.6735308 1.5629056h-28.84556774c-1.50492035 0-2.82682506-.9648103-2.82682506-2.3333333 0-5.897008 3.89898459-11.1456928 10.59091943-14.40367987 1.04811727-.51646044 2.41409677-.41631747 3.33699677.25727376l5.7070015 4.16533331c.4908722.3582699 1.1085693.6368948 1.7902766.8019984l.6822079.1677487c.9118723.2232002 1.6481333.8116919 1.9129495 1.623511.2281097.7118841.8508067 1.3653381 1.7791597 1.8163398z"/><path d="m55.4030414 8.26447819c6.6975015 3.25684031 10.5969586 8.50470321 10.5969586 14.40218851 0 1.368523-1.3219047 2.3333333-2.8268251 2.3333333h-28.8455677c-1.1787018 0-2.2689799-.5867803-2.6735308-1.560239-.4543827-1.0933672.1080141-2.2377602 1.2202854-2.7789645l7.3207999-3.5621233c.9312204-.4545387 1.5531752-1.1066811 1.7819051-1.8204804.262615-.8098192.9981283-1.3965256 1.9132375-1.6205171l.6805938-.1655797c.6783076-.1642739 1.2960047-.4428989 1.7868769-.8011687l5.7106552-4.16800004c.9221999-.67308022 2.2868072-.77358193 3.3346108-.25844812z"/><path d="m17.9583333 13.6844639-2.4584792-.806218c-.3418725-.1152784-.6537119-.3051287-.9102084-.5576791l-6.77083329-6.66666665c-.58031172-.57138385-.82162942-1.40558442-.63090645-2.19429335.18973867-.78931285.77655986-1.41940078 1.55150489-1.67374171l8.12765945-2.66753539c.9920453-.32252271 2.0800124.03544413 2.672848.88785648l12.9600012 18.56158072 12.9564016-18.56007076c.5937552-.85373156 1.6881215-1.2129082 2.6765597-.88849772l8.119868 2.66499765c.7773788.25050079 1.3664668.88430309 1.55632 1.67409614.1912663.79095999-.0482734 1.62225053-.6305895 2.19560794l-6.7643257 6.66020005c-.2599133.2606538-.5800989.4567886-.9243978.5667014l-2.4480891.8034754v.9823897c0 .7846541-.3965517 1.5145166-1.0552936 1.9453758l-12.133357 7.9612299c-.1378655.1005514-.2867362.1812948-.44595.2470348-.288144.1189756-.5964738.1796928-.9070661.1796928-.3030884 0-.6042119-.0588367-.9016494-.1770262-.147932-.0610816-.2921577-.1390689-.413559-.221654l-12.1698781-7.9884344c-.6600285-.4317021-1.0565802-1.1615646-1.0565802-1.9462187z"/></g></g><g stroke="#2470c8" stroke-linecap="round" stroke-linejoin="round" stroke-width="5"><path d="m23.3666724 47.3265224-13.3666724 3.6734776"/><path d="m21 33h-15"/><path d="m25 22-13-6"/><path d="m104.366672 50.3265224-13.366672 3.6734776" transform="matrix(-1 0 0 1 197 0)"/><path d="m102 36h-15" transform="matrix(-1 0 0 1 189 0)"/><path d="m106 25-13-6" transform="matrix(-1 0 0 1 199 0)"/></g></g></svg>