<?xml version="1.0" encoding="UTF-8"?>
<svg width="522px" height="426px" viewBox="0 0 522 426" version="1.1" xmlns="http://www.w3.org/2000/svg" xmlns:xlink="http://www.w3.org/1999/xlink">
    <!-- Generator: Sketch 50.2 (55047) - http://www.bohemiancoding.com/sketch -->
    <title>plugs-left</title>
    <desc>Created with Sketch.</desc>
    <defs></defs>
    <g id="plugs-left" stroke="none" stroke-width="1" fill="none" fill-rule="evenodd">
        <path d="M123.5,316 C123.5,276.508274 155.700728,244.5 195.414871,244.5 L214.5,244.5 L214.5,256.44964 L195.414871,256.44964 C162.316722,256.44964 135.491426,283.11461 135.491426,316 L135.491426,318.5 L123.5,318.5 L123.5,316 Z" id="Oval" stroke="#FFFFFF" stroke-width="5" fill="#E7E7E7" fill-rule="nonzero" transform="translate(169.000000, 281.500000) scale(1, -1) translate(-169.000000, -281.500000) "></path>
        <path d="M123.5,240 C123.5,200.508274 155.700728,168.5 195.414871,168.5 L300.5,168.5 L300.5,180.44964 L195.414871,180.44964 C162.316722,180.44964 135.491426,207.11461 135.491426,240 L135.491426,242.5 L123.5,242.5 L123.5,240 Z" id="Oval" stroke="#FFFFFF" stroke-width="5" fill="#E7E7E7" fill-rule="nonzero"></path>
        <path d="M64.0438322,292.5 L2.5,292.5 L2.5,280.5 L64.0438322,280.5 C97.2069766,280.5 124.090265,253.636669 124.090265,220.5 L124.090265,132.5 C124.090265,92.7350822 156.349295,60.5 196.141898,60.5 L226.5,60.5 L226.5,72.5 L196.141898,72.5 C162.978753,72.5 136.095465,99.3633308 136.095465,132.5 L136.095465,220.5 C136.095465,260.264918 103.836435,292.5 64.0438322,292.5 Z" id="Combined-Shape" stroke="#FFFFFF" stroke-width="5" fill="#E7E7E7" fill-rule="nonzero"></path>
        <path d="M252,74 L268,74 C269.656854,74 271,75.3431458 271,77 L271,79 C271,80.6568542 269.656854,82 268,82 L252,82 L252,85 C252,89.418278 248.418278,93 244,93 L234,93 C233.817805,93 233.637032,92.9939094 233.457874,92.9819207 C233.149978,92.9939386 232.830806,93 232.5,93 C217.864454,93 206,81.1355459 206,66.5 C206,51.8644541 217.864454,40 232.5,40 C232.830806,40 233.149978,40.0060614 233.457874,40.0180793 C233.637032,40.0060906 233.817805,40 234,40 L244,40 C248.418278,40 252,43.581722 252,48 L252,51 L268,51 C269.656854,51 271,52.3431458 271,54 L271,56 C271,57.6568542 269.656854,59 268,59 L252,59 L252,66.5947266 L252,74 Z" id="Combined-Shape" fill="#E7E7E7"></path>
        <path d="M331,182 L347,182 C348.656854,182 350,183.343146 350,185 L350,187 C350,188.656854 348.656854,190 347,190 L331,190 L331,193 C331,197.418278 327.418278,201 323,201 L313,201 C312.817805,201 312.637032,200.993909 312.457874,200.981921 C312.149978,200.993939 311.830806,201 311.5,201 C296.864454,201 285,189.135546 285,174.5 C285,159.864454 296.864454,148 311.5,148 C311.830806,148 312.149978,148.006061 312.457874,148.018079 C312.637032,148.006091 312.817805,148 313,148 L323,148 C327.418278,148 331,151.581722 331,156 L331,159 L347,159 C348.656854,159 350,160.343146 350,162 L350,164 C350,165.656854 348.656854,167 347,167 L331,167 L331,174.594727 L331,182 Z" id="Combined-Shape" fill="#E7E7E7"></path>
        <path d="M233,320 L246,320 C247.656854,320 249,321.343146 249,323 C249,324.656854 247.656854,326 246,326 L233,326 L233,327 C233,331.418278 229.418278,335 225,335 L220,335 C219.711402,335 219.426373,334.984718 219.145679,334.95492 C218.725072,334.984819 218.276518,335 217.798423,335 C205.759486,335 196,325.374122 196,313.5 C196,301.625878 205.759486,292 217.798423,292 C218.276518,292 218.725072,292.015181 219.145679,292.04508 C219.426373,292.015282 219.711402,292 220,292 L225,292 C229.418278,292 233,295.581722 233,300 L233,301 L246,301 C247.656854,301 249,302.343146 249,304 C249,305.656854 247.656854,307 246,307 L233,307 L233,313.576854 L233,320 Z" id="Combined-Shape" fill="#E7E7E7" transform="translate(222.500000, 313.500000) scale(1, -1) translate(-222.500000, -313.500000) "></path>
        <circle id="Oval-3" fill="#E7E7E7" cx="462.5" cy="66.5" r="7.5"></circle>
        <circle id="Oval-3" fill="#E7E7E7" cx="462.5" cy="375.5" r="7.5"></circle>
        <circle id="Oval-3" fill="#E7E7E7" cx="462.5" cy="169.5" r="7.5"></circle>
        <circle id="Oval-3" fill="#E7E7E7" cx="462.5" cy="272.5" r="7.5"></circle>
        <circle id="Oval-3" fill="#E7E7E7" cx="357.5" cy="375.5" r="7.5"></circle>
        <circle id="Oval-3" fill="#E7E7E7" cx="357.5" cy="272.5" r="7.5"></circle>
        <circle id="Oval-3" fill="#E7E7E7" cx="256.5" cy="375.5" r="7.5"></circle>
        <circle id="Oval-3" fill="#E7E7E7" cx="256.5" cy="272.5" r="7.5"></circle>
        <circle id="Oval-3" fill="#E7E7E7" cx="151.5" cy="375.5" r="7.5"></circle>
    </g>
</svg>