<?xml version="1.0" encoding="UTF-8"?>
<svg width="522px" height="426px" viewBox="0 0 522 426" version="1.1" xmlns="http://www.w3.org/2000/svg" xmlns:xlink="http://www.w3.org/1999/xlink">
    <!-- Generator: Sketch 50.2 (55047) - http://www.bohemiancoding.com/sketch -->
    <title>plugs-right</title>
    <desc>Created with Sketch.</desc>
    <defs></defs>
    <g id="plugs-right" stroke="none" stroke-width="1" fill="none" fill-rule="evenodd">
        <path d="M280.09375,288 C280.09375,248.508274 312.294478,216.5 352.008621,216.5 L403.5,216.5 L403.5,228.44964 L352.008621,228.44964 C318.910472,228.44964 292.085176,255.11461 292.085176,288 L292.085176,290.5 L280.09375,290.5 L280.09375,288 Z" id="Oval" stroke="#FFFFFF" stroke-width="5" fill="#E7E7E7" fill-rule="nonzero" transform="translate(341.796875, 253.500000) scale(-1, -1) translate(-341.796875, -253.500000) "></path>
        <path d="M229,242 C229,203.892352 260.078096,173 298.414871,173 L401,173 L401,179.94964 L298.414871,179.94964 C263.939354,179.94964 235.991426,207.730533 235.991426,242 L229,242 Z" id="Oval" fill="#E7E7E7" fill-rule="nonzero" transform="translate(315.000000, 207.500000) scale(-1, 1) translate(-315.000000, -207.500000) "></path>
        <path d="M259.282113,294.5 L197.738281,294.5 L197.738281,282.5 L259.282113,282.5 C292.445258,282.5 319.328546,255.636669 319.328546,222.5 L319.328546,155.285156 C319.328546,115.520238 351.587576,83.2851563 391.380179,83.2851563 L524.5,83.2851563 L524.5,95.2851563 L391.380179,95.2851563 C358.217034,95.2851563 331.333746,122.148487 331.333746,155.285156 L331.333746,222.5 C331.333746,262.264918 299.074716,294.5 259.282113,294.5 Z" id="Combined-Shape" stroke="#FFFFFF" stroke-width="5" fill="#E7E7E7" fill-rule="nonzero" transform="translate(361.119141, 188.892578) scale(-1, 1) translate(-361.119141, -188.892578) "></path>
        <path d="M191,99 L207,99 C208.656854,99 210,100.343146 210,102 L210,104 C210,105.656854 208.656854,107 207,107 L191,107 L191,110 C191,114.418278 187.418278,118 183,118 L173,118 C172.817805,118 172.637032,117.993909 172.457874,117.981921 C172.149978,117.993939 171.830806,118 171.5,118 C156.864454,118 145,106.135546 145,91.5 C145,76.8644541 156.864454,65 171.5,65 C171.830806,65 172.149978,65.0060614 172.457874,65.0180793 C172.637032,65.0060906 172.817805,65 173,65 L183,65 C187.418278,65 191,68.581722 191,73 L191,76 L207,76 C208.656854,76 210,77.3431458 210,79 L210,81 C210,82.6568542 208.656854,84 207,84 L191,84 L191,91.5947266 L191,99 Z" id="Combined-Shape" fill="#E7E7E7" transform="translate(177.500000, 91.500000) scale(-1, 1) translate(-177.500000, -91.500000) "></path>
        <path d="M223,184 L239,184 C240.656854,184 242,185.343146 242,187 L242,189 C242,190.656854 240.656854,192 239,192 L223,192 L223,195 C223,199.418278 219.418278,203 215,203 L205,203 C204.817805,203 204.637032,202.993909 204.457874,202.981921 C204.149978,202.993939 203.830806,203 203.5,203 C188.864454,203 177,191.135546 177,176.5 C177,161.864454 188.864454,150 203.5,150 C203.830806,150 204.149978,150.006061 204.457874,150.018079 C204.637032,150.006091 204.817805,150 205,150 L215,150 C219.418278,150 223,153.581722 223,158 L223,161 L239,161 C240.656854,161 242,162.343146 242,164 L242,166 C242,167.656854 240.656854,169 239,169 L223,169 L223,176.594727 L223,184 Z" id="Combined-Shape" fill="#E7E7E7" transform="translate(209.500000, 176.500000) scale(-1, 1) translate(-209.500000, -176.500000) "></path>
        <path d="M275,292 L288,292 C289.656854,292 291,293.343146 291,295 C291,296.656854 289.656854,298 288,298 L275,298 L275,299 C275,303.418278 271.418278,307 267,307 L262,307 C261.711402,307 261.426373,306.984718 261.145679,306.95492 C260.725072,306.984819 260.276518,307 259.798423,307 C247.759486,307 238,297.374122 238,285.5 C238,273.625878 247.759486,264 259.798423,264 C260.276518,264 260.725072,264.015181 261.145679,264.04508 C261.426373,264.015282 261.711402,264 262,264 L267,264 C271.418278,264 275,267.581722 275,272 L275,273 L288,273 C289.656854,273 291,274.343146 291,276 C291,277.656854 289.656854,279 288,279 L275,279 L275,285.576854 L275,292 Z" id="Combined-Shape" fill="#E7E7E7" transform="translate(264.500000, 285.500000) scale(-1, -1) translate(-264.500000, -285.500000) "></path>
        <circle id="Oval-3" fill="#E7E7E7" transform="translate(64.500000, 68.500000) scale(-1, 1) translate(-64.500000, -68.500000) " cx="64.5" cy="68.5" r="7.5"></circle>
        <circle id="Oval-3" fill="#E7E7E7" transform="translate(64.500000, 377.500000) scale(-1, 1) translate(-64.500000, -377.500000) " cx="64.5" cy="377.5" r="7.5"></circle>
        <circle id="Oval-3" fill="#E7E7E7" transform="translate(64.500000, 171.500000) scale(-1, 1) translate(-64.500000, -171.500000) " cx="64.5" cy="171.5" r="7.5"></circle>
        <circle id="Oval-3" fill="#E7E7E7" transform="translate(64.500000, 274.500000) scale(-1, 1) translate(-64.500000, -274.500000) " cx="64.5" cy="274.5" r="7.5"></circle>
        <circle id="Oval-3" fill="#E7E7E7" transform="translate(169.500000, 377.500000) scale(-1, 1) translate(-169.500000, -377.500000) " cx="169.5" cy="377.5" r="7.5"></circle>
        <circle id="Oval-3" fill="#E7E7E7" transform="translate(169.500000, 274.500000) scale(-1, 1) translate(-169.500000, -274.500000) " cx="169.5" cy="274.5" r="7.5"></circle>
        <circle id="Oval-3" fill="#E7E7E7" transform="translate(270.500000, 377.500000) scale(-1, 1) translate(-270.500000, -377.500000) " cx="270.5" cy="377.5" r="7.5"></circle>
        <circle id="Oval-3" fill="#E7E7E7" transform="translate(375.500000, 377.500000) scale(-1, 1) translate(-375.500000, -377.500000) " cx="375.5" cy="377.5" r="7.5"></circle>
    </g>
</svg>