<svg height="81" viewBox="0 0 122 81" width="122" xmlns="http://www.w3.org/2000/svg" xmlns:xlink="http://www.w3.org/1999/xlink"><mask id="a" fill="#fff"><rect fill="none" height="58" rx="2" width="52"/></mask><g fill="none" fill-rule="evenodd"><g stroke="#2470c8" stroke-width="2" transform="translate(63 11)"><rect fill="#fff" height="56" rx="2" width="50" x="1" y="1"/><path d="m1 1h50v19h-50z" fill="#2470c8" mask="url(#a)"/></g><path d="m70 35h39v29h-39z" fill="#b9d9ff"/><g stroke-width="2"><g stroke="#fff" stroke-linecap="square" transform="translate(68 33)"><path d="m9.5.5v31"/><path d="m17.5.5v31"/><path d="m25.5.5v31"/><path d="m33.5.5v31"/><path d="m42.5 8.5h-42"/><path d="m42.5 16.5h-42"/><path d="m42.5 24.5h-42"/></g><path d="m76.2711349 39.2979827c.3922634.3529456.6168004.8619302.6168004 1.3978502s-.224537 1.0449047-.6168004 1.3978503l-7.2140401 6.5016289c-.3282389.2962886-.7502602.4597581-1.1867096.4597581h-.2768388c-.2705265 0-.5365443-.0613011-.7872322-.1839032l-2.9622652-2.5811209-2.9622652 2.5811209c-.4941617.2461331-1.0703832.2461331-1.5654467 0l-2.9622652-2.5811209-2.9622652 2.5811209c-.4923583.2461331-1.0703832.2461331-1.5636432 0l-2.9640688-2.5811209-2.9622652 2.5811209c-.4941617.2461331-1.0694814.2461331-1.5654467 0l-2.9613635-2.5811209-2.9622652 2.5811209c-.2434738.1226021-.5112951.1839032-.7827233.1839032h-4.8361122c-3.1462232 7.0208305-10.0807193 11.6527767-17.6356228 11.6527767-10.71284951 0-19.42831172-8.976892-19.42831172-20.012014 0-11.0341932 8.71546221-20.0110852 19.42921352-20.0110852 7.5549035 0 14.4893996 4.6319463 17.6356228 11.651848h35.0755648c.4364494 0 .8584707.1634695 1.1867096.459758zm-71.09125239 4.7335729c2.758865 0 5.00288739-2.244932 5.00288739-5.0028874 0-2.758865-2.24402239-5.0028874-5.00288739-5.0028874s-5.0028874 2.2440224-5.0028874 5.0028874c0 2.7579554 2.2440224 5.0028874 5.0028874 5.0028874z" fill="#b9d9ff" fill-rule="nonzero" stroke="#2470c8" transform="matrix(-.70710678 .70710678 .70710678 .70710678 33.206644 -13.754642)"/><rect fill="#b9d9ff" height="15" rx="2" stroke="#2470c8" width="7" x="100" y="6"/><rect fill="#b9d9ff" height="15" rx="2" stroke="#2470c8" width="7" x="72" y="6"/><ellipse cx="98" cy="53.5" rx="7" ry="5.5" stroke="#2470c8"/></g></g></svg>