<svg height="81" viewBox="0 0 122 81" width="122" xmlns="http://www.w3.org/2000/svg"><g fill="none" fill-rule="evenodd" stroke="#2470c8"><path d="m86.316 38.4627416-8-7.1476642c-.364-.3257293-.832-.505442-1.316-.505442h-38.897c-3.489-7.7174352-11.179-12.8096354-19.557-12.8096354-11.881 0-21.546 9.8688821-21.546 21.9994895 0 12.1316284 9.665 22.0005105 21.545 22.0005105 8.378 0 16.068-5.0922002 19.557-12.8106565h5.363c.301 0 .598-.0673923.868-.2021768l3.285-2.8375943 3.284 2.8375943c.55.2705901 1.188.2705901 1.736 0l3.285-2.8375943 3.287 2.8375943c.547.2705901 1.188.2705901 1.734 0l3.285-2.8375943 3.285 2.8375943c.549.2705901 1.188.2705901 1.736 0l3.285-2.8375943 3.285 2.8375943c.278.1347845.573.2021768.873.2021768h.307c.484 0 .952-.1797127 1.316-.505442l8-7.1476642c.435-.3880161.684-.9475761.684-1.5367478 0-.5891718-.249-1.1487318-.684-1.5367479zm-78.066 5.9372584c-2.96706522 0-5.38043478-2.4131556-5.38043478-5.3777778 0-2.9656 2.41336956-5.3777778 5.38043478-5.3777778 2.9670652 0 5.3804348 2.4121778 5.3804348 5.3777778 0 2.9646222-2.4133696 5.3777778-5.3804348 5.3777778z" fill="#b9d9ff" fill-rule="nonzero" stroke-width="2" transform="matrix(-.70710678 .70710678 .70710678 .70710678 43.414214 -17.982756)"/><path d="m91.8453262 38.7212179 2.4007279-2.0393153 2.398857 2.0383465 2.3992919-2.0380955 2.400241 2.0376614 2.398978-2.0378287 2.399511 2.0382817 2.399511-2.0382817 2.400619 2.0392226c.000593.000006.001187.000009.001781.000009h.177378c.036365 0 .071925-.0134301.100313-.0384107l4.622834-4.0617104c.034755-.030486.054631-.0744029.054631-.1213869s-.019876-.0909009-.054631-.1213869l-.000612-.0005375-4.622806-4.0616865c-.027804-.0244669-.063364-.0378971-.099729-.0378971h-23.1147071l-.267699-.5822979c-1.8606932-4.0473736-5.9598977-6.695904-10.3910159-6.695904-6.3112847 0-11.4488 5.1585996-11.4488 11.4997099 0 6.3415251 5.1373508 11.5002901 11.4482222 11.5002901 4.4312273 0 8.5303462-2.6486261 10.390995-6.6964385l.2676845-.5823436zm-20.3453262-.7212179c-2.2625991 0-4.1086957-1.8147671-4.1086957-4.0555556 0-2.2411808 1.8459291-4.0555555 4.1086957-4.0555555s4.1086957 1.8143747 4.1086957 4.0555555c0 2.2407885-1.8460966 4.0555556-4.1086957 4.0555556z" fill="#2470c8" fill-rule="nonzero" stroke-width="2" transform="matrix(-.70710678 .70710678 .70710678 .70710678 130.951533 -54.241901)"/><g stroke-width="5"><path d="m101.247932 42c14.65409 4.8113682 14.014525 13.7018754 0 19.9006251-9.3430166 4.1324999-24.7589939 4.1324999-46.247932 0"/><path d="m66.1722123 60.9941635-11.1722123.9064616 10.0391248 4.9855765"/></g></g></svg>