<svg height="81" viewBox="0 0 122 81" width="122" xmlns="http://www.w3.org/2000/svg"><g fill="none" fill-rule="evenodd" stroke="#2470c8" stroke-width="2"><g fill-rule="nonzero"><path d="m36.8182831 59.4630047-3.2-2.9240445c-.1456-.1332529-.3328-.2067717-.5264-.2067717h-15.5588c-1.3956-3.1571326-4.4716-5.2403054-7.82280001-5.2403054-4.7524 0-8.6184 4.03727-8.6184 8.9997911 0 4.9629389 3.866 9.0002089 8.618 9.0002089 3.35120001 0 6.42720001-2.0831728 7.82280001-5.2407231h2.1452c.1204 0 .2392-.0275696.3472-.0827087l1.314-1.1608341 1.3136 1.1608341c.22.110696.4752.110696.6944 0l1.314-1.1608341 1.3148 1.1608341c.2188.110696.4752.110696.6936 0l1.314-1.1608341 1.314 1.1608341c.2196.110696.4752.110696.6944 0l1.314-1.1608341 1.314 1.1608341c.1112.0551391.2292.0827087.3492.0827087h.1228c.1936 0 .3808-.0735189.5264-.2067717l3.2-2.9240445c.174-.1587339.2736-.3876448.2736-.6286696s-.0996-.4699357-.2736-.6286695zm-30.31218645 1.6288784c-1.10290909 0-2-.8974546-2-2 0-1.1029091.89709091-2 2-2 1.1029091 0 2 .8970909 2 2 0 1.1025454-.8970909 2-2 2z" fill="#b9d9ff" transform="matrix(-.70710678 .70710678 .70710678 .70710678 -9.899495 4.100505)"/><path d="m74.8182831 59.4630047-3.2-2.9240445c-.1456-.1332529-.3328-.2067717-.5264-.2067717h-15.5588c-1.3956-3.1571326-4.4716-5.2403054-7.8228-5.2403054-4.7524 0-8.6184 4.03727-8.6184 8.9997911 0 4.9629389 3.866 9.0002089 8.618 9.0002089 3.3512 0 6.4272-2.0831728 7.8228-5.2407231h2.1452c.1204 0 .2392-.0275696.3472-.0827087l1.314-1.1608341 1.3136 1.1608341c.22.110696.4752.110696.6944 0l1.314-1.1608341 1.3148 1.1608341c.2188.110696.4752.110696.6936 0l1.314-1.1608341 1.314 1.1608341c.2196.110696.4752.110696.6944 0l1.314-1.1608341 1.314 1.1608341c.1112.0551391.2292.0827087.3492.0827087h.1228c.1936 0 .3808-.0735189.5264-.2067717l3.2-2.9240445c.174-.1587339.2736-.3876448.2736-.6286696s-.0996-.4699357-.2736-.6286695zm-30.3121864 1.6288784c-1.1029091 0-2-.8974546-2-2 0-1.1029091.8970909-2 2-2 1.102909 0 2 .8970909 2 2 0 1.1025454-.897091 2-2 2z" fill="#b9d9ff" transform="matrix(-.70710678 .70710678 .70710678 .70710678 54.970563 -22.769553)"/><path d="m74.0238341 19.0916744-3.0199109-2.7594859h-16.1221393l-.2633244-.5956937c-1.2428616-2.8116071-3.9707391-4.6446117-6.9081764-4.6446117-4.190131 0-7.6184 3.5800321-7.6184 7.9997911 0 4.420061 3.4281602 8.0002089 7.618 8.0002089 2.9375071 0 5.6653223-1.8330673 6.9081566-4.6449847l.2633093-.5957384h2.6716602l1.7861747-1.5779699 1.6607471 1.4676095 1.6609506-1.4673424 1.6617056 1.4671162 1.6608959-1.4672942 1.6612 1.4675628 1.6612-1.4675628 1.7413139 1.5383383zm-3.0804655-2.8148185-.0002213-.0002023c.0000737.0000675.0001474.0001349.0002213.0002023zm-9.8488029 5.9915609-.0946298.1070831-.0952717-.1078423.0945865-.1879836zm-.095315-.1887428.1029053-.2045167c-.0629787-.0316886-.1417985-.0316886-.2058534.0006591zm3.4172721.1896938-.0939452.1064056-.094126-.1065453.0939142-.1856294zm-.094157-.1857691.104954-.2074505c-.0651391-.0329554-.144254-.0329554-.2099314.0003331zm3.416951.1847212-.0946337.1071202-.0949267-.1074517.0946102-.1876888zm-.0949502-.1880203.1032424-.2048134c-.0636254-.0320723-.1423429-.0320723-.2065064.0003302zm3.2995735-.1743296c-.0000722.0000658-.0001443.0001317-.0002164.0001976zm3.2002726-2.7042983c.0000384.0000351.0000769.0000702.0001154.0001053zm-29.638116 1.8902114c-1.6550965 0-3-1.3450724-3-3 0-1.6551938 1.3448061-3 3-3 1.6551938 0 3 1.3448062 3 3 0 1.6549276-1.3449036 3-3 3z" fill="#2470c8" transform="matrix(-.70710678 .70710678 .70710678 .70710678 83.961941 -34.778175)"/><path d="m116.818283 59.4630047-3.2-2.9240445c-.1456-.1332529-.3328-.2067717-.5264-.2067717h-15.5587999c-1.3956-3.1571326-4.4716-5.2403054-7.8228-5.2403054-4.7524 0-8.6184 4.03727-8.6184 8.9997911 0 4.9629389 3.866 9.0002089 8.618 9.0002089 3.3512 0 6.4272-2.0831728 7.8228-5.2407231h2.1452c.1204 0 .2392-.0275696.3471999-.0827087l1.314-1.1608341 1.3136 1.1608341c.22.110696.4752.110696.6944 0l1.314-1.1608341 1.3148 1.1608341c.2188.110696.4752.110696.6936 0l1.314-1.1608341 1.314 1.1608341c.2196.110696.4752.110696.6944 0l1.314-1.1608341 1.314 1.1608341c.1112.0551391.2292.0827087.3492.0827087h.1228c.1936 0 .3808-.0735189.5264-.2067717l3.2-2.9240445c.174-.1587339.2736-.3876448.2736-.6286696s-.0996-.4699357-.2736-.6286695zm-30.3121863 1.6288784c-1.1029091 0-2-.8974546-2-2 0-1.1029091.8970909-2 2-2 1.102909 0 2 .8970909 2 2 0 1.1025454-.897091 2-2 2z" fill="#b9d9ff" transform="matrix(-.70710678 .70710678 .70710678 .70710678 126.669047 -52.468037)"/></g><path d="m61.8046875 27c0 4.3994141.7509766 9.2167969-4.2607422 9.2167969-5.0117187 0-20.1210937 0-25.1884765 0-5.0673829 0-7.4013672.8486328-7.4013672 5.2832031"/><path d="m98.8505859 27c0 4.3994141.7509766 9.2167969-4.2607421 9.2167969-5.0117188 0-20.1210938 0-25.1884766 0s-7.4013672.8486328-7.4013672 5.2832031" transform="matrix(-1 0 0 1 160.890514 0)"/></g></svg>