<?xml version="1.0" encoding="UTF-8"?>
<svg width="510px" height="473px" viewBox="0 0 510 473" version="1.1" xmlns="http://www.w3.org/2000/svg" xmlns:xlink="http://www.w3.org/1999/xlink">
    <!-- Generator: Sketch 50.2 (55047) - http://www.bohemiancoding.com/sketch -->
    <title>hero-image</title>
    <desc>Created with Sketch.</desc>
    <defs>
        <linearGradient x1="50%" y1="0%" x2="50%" y2="100%" id="linearGradient-1">
            <stop stop-color="#EEEEEE" offset="0%"></stop>
            <stop stop-color="#B5B7B8" offset="100%"></stop>
        </linearGradient>
        <rect id="path-2" x="26" y="6" width="114" height="72"></rect>
        <rect id="path-3" x="26" y="6" width="114" height="72"></rect>
        <rect id="path-4" x="26" y="6" width="114" height="72"></rect>
    </defs>
    <g id="hero-image" stroke="none" stroke-width="1" fill="none" fill-rule="evenodd">
        <g id="Laptop" transform="translate(21.000000, 152.000000)">
            <rect id="Rectangle" stroke="#F7F7F7" stroke-width="2" fill="#FAFAFA" x="22" y="1" width="122" height="81" rx="8"></rect>
            <path d="M50.2073743,89.9995482 L50.2073743,90 C31.3368742,90 19.5162805,90 14.7455931,90 C7.589562,90 0,87.4716546 0,87.1572182 C0,86.9475939 16.7357914,86.9475939 50.2073743,87.1572182 L50.2073743,87.1839273 C126.069125,86.9769891 164,86.9772012 164,87.1845635 C164,87.4959253 156.410438,89.9995482 149.254407,89.9995482 L50.2073743,89.9995482 Z" id="Combined-Shape" fill="url(#linearGradient-1)"></path>
            <rect id="Rectangle-2" stroke="#FFFFFF" fill="#F0F0F0" x="0.5" y="84.5" width="164" height="2" rx="1"></rect>
            <g id="Rectangle-3" stroke-width="0.5">
                <rect stroke="#F0EFEF" stroke-linejoin="square" x="26.25" y="6.25" width="113.5" height="71.5"></rect>
                <rect stroke="#FFFFFF" x="25.75" y="5.75" width="114.5" height="72.5"></rect>
            </g>
            <rect id="Screen" fill="#202020" x="27" y="7" width="113" height="71"></rect>
            <g id="OS-buttons" transform="translate(36.500000, 12.500000) scale(1, -1) translate(-36.500000, -12.500000) translate(31.000000, 11.000000)">
                <circle id="Oval" fill="#FF6058" cx="1.5" cy="1.5" r="1.5"></circle>
                <circle id="Oval" fill="#FFBF2F" cx="5.5" cy="1.5" r="1.5"></circle>
                <circle id="Oval" fill="#28C940" cx="9.5" cy="1.5" r="1.5"></circle>
            </g>
            <g id="Code" opacity="0.332254464" transform="translate(31.000000, 19.000000)" fill="#D8D8D8">
                <rect id="Rectangle-10" x="0" y="0" width="10" height="2"></rect>
                <rect id="Rectangle-10" x="5" y="12" width="6" height="2"></rect>
                <rect id="Rectangle-10" x="0" y="16" width="6" height="2"></rect>
                <rect id="Rectangle-10" x="0" y="20" width="6" height="2"></rect>
                <rect id="Rectangle-10" x="14" y="32" width="6" height="2"></rect>
                <rect id="Rectangle-10" x="14" y="36" width="15" height="2"></rect>
                <rect id="Rectangle-10" x="20" y="40" width="15" height="2"></rect>
                <rect id="Rectangle-10" x="14" y="44" width="10" height="2"></rect>
                <rect id="Rectangle-10" x="5" y="4" width="25" height="2"></rect>
                <rect id="Rectangle-10" x="14" y="8" width="19" height="2"></rect>
                <rect id="Rectangle-10" x="5" y="24" width="19" height="2"></rect>
                <rect id="Rectangle-10" x="20" y="48" width="35" height="2"></rect>
                <rect id="Rectangle-10" x="20" y="52" width="35" height="2"></rect>
                <rect id="Rectangle-10" x="10" y="28" width="19" height="2"></rect>
                <rect id="Rectangle-10" x="14" y="8" width="19" height="2"></rect>
            </g>
        </g>
        <g id="Laptop" transform="translate(303.000000, 54.000000)">
            <rect id="Rectangle" stroke="#F7F7F7" stroke-width="2" fill="#FAFAFA" x="22" y="1" width="122" height="81" rx="8"></rect>
            <path d="M50.2073743,89.9995482 L50.2073743,90 C31.3368742,90 19.5162805,90 14.7455931,90 C7.589562,90 0,87.4716546 0,87.1572182 C0,86.9475939 16.7357914,86.9475939 50.2073743,87.1572182 L50.2073743,87.1839273 C126.069125,86.9769891 164,86.9772012 164,87.1845635 C164,87.4959253 156.410438,89.9995482 149.254407,89.9995482 L50.2073743,89.9995482 Z" id="Combined-Shape" fill="url(#linearGradient-1)"></path>
            <rect id="Rectangle-2" stroke="#FFFFFF" fill="#F0F0F0" x="0.5" y="84.5" width="164" height="2" rx="1"></rect>
            <g id="Rectangle-3" stroke-width="0.5">
                <rect stroke="#F0EFEF" stroke-linejoin="square" x="26.25" y="6.25" width="113.5" height="71.5"></rect>
                <rect stroke="#FFFFFF" x="25.75" y="5.75" width="114.5" height="72.5"></rect>
            </g>
            <rect id="Screen" fill="#202020" x="27" y="7" width="113" height="71"></rect>
            <g id="OS-buttons" transform="translate(36.500000, 12.500000) scale(1, -1) translate(-36.500000, -12.500000) translate(31.000000, 11.000000)">
                <circle id="Oval" fill="#FF6058" cx="1.5" cy="1.5" r="1.5"></circle>
                <circle id="Oval" fill="#FFBF2F" cx="5.5" cy="1.5" r="1.5"></circle>
                <circle id="Oval" fill="#28C940" cx="9.5" cy="1.5" r="1.5"></circle>
            </g>
            <g id="Code" opacity="0.332254464" transform="translate(31.000000, 19.000000)" fill="#D8D8D8">
                <rect id="Rectangle-10" x="0" y="0" width="10" height="2"></rect>
                <rect id="Rectangle-10" x="5" y="12" width="6" height="2"></rect>
                <rect id="Rectangle-10" x="0" y="16" width="6" height="2"></rect>
                <rect id="Rectangle-10" x="0" y="20" width="6" height="2"></rect>
                <rect id="Rectangle-10" x="14" y="32" width="6" height="2"></rect>
                <rect id="Rectangle-10" x="14" y="36" width="15" height="2"></rect>
                <rect id="Rectangle-10" x="20" y="40" width="15" height="2"></rect>
                <rect id="Rectangle-10" x="14" y="44" width="10" height="2"></rect>
                <rect id="Rectangle-10" x="5" y="4" width="25" height="2"></rect>
                <rect id="Rectangle-10" x="14" y="8" width="19" height="2"></rect>
                <rect id="Rectangle-10" x="5" y="24" width="19" height="2"></rect>
                <rect id="Rectangle-10" x="20" y="48" width="35" height="2"></rect>
                <rect id="Rectangle-10" x="20" y="52" width="35" height="2"></rect>
                <rect id="Rectangle-10" x="10" y="28" width="19" height="2"></rect>
                <rect id="Rectangle-10" x="14" y="8" width="19" height="2"></rect>
            </g>
        </g>
        <g id="Laptop" transform="translate(258.000000, 339.000000)">
            <rect id="Rectangle" stroke="#F7F7F7" stroke-width="2" fill="#FAFAFA" x="22" y="1" width="122" height="81" rx="8"></rect>
            <path d="M50.2073743,89.9995482 L50.2073743,90 C31.3368742,90 19.5162805,90 14.7455931,90 C7.589562,90 0,87.4716546 0,87.1572182 C0,86.9475939 16.7357914,86.9475939 50.2073743,87.1572182 L50.2073743,87.1839273 C126.069125,86.9769891 164,86.9772012 164,87.1845635 C164,87.4959253 156.410438,89.9995482 149.254407,89.9995482 L50.2073743,89.9995482 Z" id="Combined-Shape" fill="url(#linearGradient-1)"></path>
            <rect id="Rectangle-2" stroke="#FFFFFF" fill="#F0F0F0" x="0.5" y="84.5" width="164" height="2" rx="1"></rect>
            <g id="Rectangle-3" stroke-width="0.5">
                <rect stroke="#F0EFEF" stroke-linejoin="square" x="26.25" y="6.25" width="113.5" height="71.5"></rect>
                <rect stroke="#FFFFFF" x="25.75" y="5.75" width="114.5" height="72.5"></rect>
            </g>
            <rect id="Screen" fill="#202020" x="27" y="7" width="113" height="71"></rect>
            <g id="OS-buttons" transform="translate(36.500000, 12.500000) scale(1, -1) translate(-36.500000, -12.500000) translate(31.000000, 11.000000)">
                <circle id="Oval" fill="#FF6058" cx="1.5" cy="1.5" r="1.5"></circle>
                <circle id="Oval" fill="#FFBF2F" cx="5.5" cy="1.5" r="1.5"></circle>
                <circle id="Oval" fill="#28C940" cx="9.5" cy="1.5" r="1.5"></circle>
            </g>
            <g id="Code" opacity="0.332254464" transform="translate(31.000000, 19.000000)" fill="#D8D8D8">
                <rect id="Rectangle-10" x="0" y="0" width="10" height="2"></rect>
                <rect id="Rectangle-10" x="5" y="12" width="6" height="2"></rect>
                <rect id="Rectangle-10" x="0" y="16" width="6" height="2"></rect>
                <rect id="Rectangle-10" x="0" y="20" width="6" height="2"></rect>
                <rect id="Rectangle-10" x="14" y="32" width="6" height="2"></rect>
                <rect id="Rectangle-10" x="14" y="36" width="15" height="2"></rect>
                <rect id="Rectangle-10" x="20" y="40" width="15" height="2"></rect>
                <rect id="Rectangle-10" x="14" y="44" width="10" height="2"></rect>
                <rect id="Rectangle-10" x="5" y="4" width="25" height="2"></rect>
                <rect id="Rectangle-10" x="14" y="8" width="19" height="2"></rect>
                <rect id="Rectangle-10" x="5" y="24" width="19" height="2"></rect>
                <rect id="Rectangle-10" x="20" y="48" width="35" height="2"></rect>
                <rect id="Rectangle-10" x="20" y="52" width="35" height="2"></rect>
                <rect id="Rectangle-10" x="10" y="28" width="19" height="2"></rect>
                <rect id="Rectangle-10" x="14" y="8" width="19" height="2"></rect>
            </g>
        </g>
        <path d="M398.462162,326.492801 C397.348666,328.079877 395.140288,328.477015 393.529612,327.379836 C391.918935,326.282656 391.515891,324.106637 392.629387,322.519562 C393.567588,321.182335 394.483595,319.830142 395.376999,318.463524 C396.437367,316.841506 398.631423,316.373603 400.277562,317.418433 C401.923701,318.463263 402.398562,320.62517 401.338194,322.247188 C400.403019,323.677702 399.4442,325.093095 398.462162,326.492801 Z M406.663497,313.484696 C405.713009,315.171546 403.554688,315.779777 401.842753,314.843217 C400.130817,313.906657 399.513541,311.779962 400.464029,310.093111 C401.264578,308.672358 402.041519,307.238715 402.794501,305.792725 C403.68841,304.076105 405.825356,303.398547 407.567504,304.279357 C409.309651,305.160168 409.997285,307.265801 409.103376,308.982421 C408.315031,310.496321 407.501616,311.997269 406.663497,313.484696 Z M413.532547,299.741546 C412.755003,301.512316 410.66784,302.326721 408.870737,301.560571 C407.073635,300.794421 406.247119,298.737841 407.024662,296.967071 C407.679354,295.476083 408.309277,293.974288 408.914137,292.462219 C409.632177,290.667217 411.691038,289.785638 413.512733,290.493156 C415.334427,291.200674 416.229116,293.229367 415.511077,295.024368 C414.8777,296.607723 414.218088,298.180302 413.532547,299.741546 Z M418.999833,285.381532 C418.403566,287.219308 416.408229,288.232832 414.543124,287.645301 C412.678019,287.05777 411.649423,285.091671 412.245691,283.253896 C412.747698,281.706643 413.224055,280.150633 413.674525,278.586373 C414.209046,276.730245 416.169426,275.652522 418.053156,276.17921 C419.936886,276.705899 421.030636,278.637553 420.496115,280.493681 C420.024382,282.131778 419.525539,283.76124 418.999833,285.381532 Z M423.942295,209.668457 C424.292274,211.566795 423.014195,213.385259 421.087627,213.73011 C419.161058,214.074961 417.315552,212.81561 416.965573,210.917271 C416.670505,209.31678 416.349057,207.722637 416.001415,206.135317 C415.588359,204.249327 416.805145,202.390488 418.719182,201.983485 C420.633218,201.576482 422.519699,202.775439 422.932755,204.661429 C423.296768,206.323495 423.633346,207.992672 423.942295,209.668457 Z M420.407652,194.732398 C420.946039,196.587441 419.856314,198.521303 417.973685,199.0518 C416.091056,199.582297 414.128436,198.508541 413.59005,196.653498 C413.136359,195.090278 412.656798,193.535347 412.151606,191.989215 C411.551516,190.152648 412.576018,188.184475 414.439897,187.593177 C416.303775,187.00188 418.301217,188.01137 418.901307,189.847937 C419.430347,191.467056 419.932546,193.095389 420.407652,194.732398 Z M415.409222,180.253735 C416.130467,182.047489 415.239403,184.07773 413.418975,184.788406 C411.598547,185.499082 409.538114,184.621074 408.816869,182.827321 C408.209198,181.316027 407.576472,179.815048 406.918987,178.324916 C406.138274,176.555501 406.961106,174.497487 408.756834,173.728214 C410.552562,172.958941 412.64118,173.769716 413.421893,175.539131 C414.110358,177.099474 414.772904,178.671196 415.409222,180.253735 Z M408.968624,166.29147 C409.865779,168.006445 409.182131,170.113338 407.441653,170.997347 C405.701175,171.881357 403.562951,171.207726 402.665795,169.492751 C401.909899,168.047804 401.130056,166.615249 400.326618,165.195631 C399.372932,163.510534 399.986171,161.382706 401.696327,160.442994 C403.406483,159.503281 405.565954,160.107535 406.519641,161.792632 C407.36078,163.278866 408.177231,164.778668 408.968624,166.29147 Z" id="Oval-2" fill="#6BBE0F" fill-rule="nonzero"></path>
        <path d="M115.039932,262.026539 C114.750806,260.114639 116.062761,258.329815 117.970265,258.040024 C119.877769,257.750232 121.658489,259.065211 121.947614,260.977111 C122.191152,262.587555 122.460713,264.192205 122.756128,265.790596 C123.107544,267.691985 121.854587,269.5189 119.95757,269.871126 C118.060554,270.223351 116.23784,268.967507 115.886424,267.066118 C115.577124,265.3926 115.294901,263.712577 115.039932,262.026539 Z M118.078754,277.076438 C117.603251,275.202353 118.733532,273.296747 120.603308,272.820148 C122.473084,272.343549 124.374308,273.476436 124.849811,275.350521 C125.250186,276.928508 125.676185,278.498793 126.127591,280.060877 C126.664335,281.918273 125.597198,283.860109 123.744073,284.39809 C121.890949,284.936071 119.953578,283.866474 119.416834,282.009079 C118.944123,280.37327 118.49802,278.72888 118.078754,277.076438 Z M122.579955,291.742688 C121.922339,289.924753 122.859573,287.916694 124.673327,287.257561 C126.487082,286.598429 128.490524,287.537823 129.148141,289.355758 C129.701704,290.886046 130.280178,292.406625 130.883288,293.916971 C131.600179,295.712253 130.729317,297.750111 128.938163,298.468654 C127.14701,299.187197 125.113838,298.314328 124.396947,296.519046 C123.765394,294.937475 123.159635,293.345171 122.579955,291.742688 Z M128.513864,305.917886 C127.680503,304.173854 128.415497,302.082908 130.155518,301.247627 C131.89554,300.412345 133.981678,301.149033 134.815038,302.893065 C135.51684,304.361774 136.242566,305.818694 136.991887,307.263283 C137.881842,308.978994 137.215632,311.092968 135.503866,311.984974 C133.792099,312.87698 131.682987,312.209234 130.793032,310.493523 C130.008502,308.981056 129.248664,307.455655 128.513864,305.917886 Z M135.787745,319.39862 C134.787879,317.744837 135.3149,315.591762 136.96488,314.589592 C138.61486,313.587422 140.762984,314.115658 141.762849,315.769441 C142.605653,317.163441 143.471148,318.543551 144.358949,319.909225 C145.412186,321.529383 144.955625,323.698567 143.339192,324.754231 C141.722758,325.809896 139.558563,325.352283 138.505326,323.732124 C137.575997,322.302568 136.670001,320.857876 135.787745,319.39862 Z M144.366005,332.133894 C143.209494,330.586105 143.523801,328.391676 145.068031,327.232499 C146.612261,326.073321 148.801644,326.388354 149.958155,327.936142 C150.933297,329.241199 151.929626,330.530304 152.946704,331.802923 C154.152879,333.312151 153.910019,335.515674 152.404261,336.724629 C150.898504,337.933584 148.700048,337.690165 147.493873,336.180937 C146.429393,334.849005 145.386617,333.499805 144.366005,332.133894 Z M189.624031,372.961105 C187.966666,371.971253 187.423695,369.822163 188.411271,368.160979 C189.398847,366.499794 191.542996,365.955572 193.20036,366.945424 C194.596617,367.779331 196.006417,368.590326 197.429213,369.378046 C199.117997,370.313026 199.730819,372.443163 198.797988,374.135839 C197.865157,375.828516 195.739919,376.442749 194.051135,375.507769 C192.561612,374.683107 191.08572,373.834092 189.624031,372.961105 Z M203.168459,380.170399 C201.422028,379.348665 200.670881,377.263494 201.490725,375.513038 C202.310569,373.762582 204.390946,373.009704 206.137376,373.831438 C207.608205,374.523494 209.090487,375.19141 210.583684,375.834876 C212.356102,376.598668 213.175179,378.657984 212.413144,380.434487 C211.651109,382.21099 209.596528,383.031955 207.82411,382.268164 C206.260587,381.594392 204.708516,380.895029 203.168459,380.170399 Z M217.35444,386.006905 C215.535637,385.3619 214.582882,383.361192 215.226403,381.538196 C215.869924,379.715201 217.866032,378.760251 219.684835,379.405255 C221.216421,379.948403 222.757394,380.466448 224.307238,380.959139 C226.146248,381.543756 227.164225,383.511929 226.580953,385.355178 C225.99768,387.198426 224.034033,388.218749 222.195023,387.634133 C220.57202,387.118184 218.95831,386.575687 217.35444,386.006905 Z M232.060187,390.414051 C230.186661,389.952488 229.041178,388.056023 229.501679,386.178179 C229.962181,384.300334 231.854285,383.15221 233.727812,383.613774 C235.305067,384.002347 236.889707,384.365169 238.481244,384.702041 C240.368904,385.101592 241.575999,386.959268 241.177367,388.851278 C240.778735,390.743288 238.92533,391.953165 237.037671,391.553615 C235.371143,391.20087 233.71181,390.820946 232.060187,390.414051 Z M247.058915,393.333629 C245.14924,393.058582 243.823598,391.283946 244.098012,389.369869 C244.372427,387.455792 246.142981,386.127096 248.052657,386.402142 C249.659792,386.633615 251.272424,386.839016 252.890106,387.018195 C254.807723,387.230596 256.19047,388.960901 255.978558,390.882938 C255.766645,392.804975 254.04032,394.190909 252.122702,393.978508 C250.429401,393.790953 248.741314,393.575941 247.058915,393.333629 Z" id="Oval-2" fill="#6BBE0F" fill-rule="nonzero"></path>
        <path d="M315.49762,88.552144 C317.351928,89.1079047 318.406287,91.0672724 317.852596,92.9285141 C317.298906,94.7897558 315.346838,95.8480572 313.49253,95.2922964 C311.931008,94.8242873 310.361089,94.3818705 308.78328,93.9652702 C306.911741,93.4711147 305.793659,91.5476675 306.285974,89.6691306 C306.778288,87.7905936 308.69457,86.6683307 310.566108,87.1624862 C312.218377,87.5987462 313.862392,88.0620442 315.49762,88.552144 Z M300.578612,84.875332 C302.478473,85.2448906 303.720145,87.0903779 303.351963,88.9973433 C302.983781,90.9043087 301.145169,92.1506232 299.245308,91.7810647 C297.646329,91.4700333 296.040915,91.1850668 294.429533,90.9263391 C292.51862,90.6195177 291.217319,88.8158956 291.522998,86.8978363 C291.828676,84.9797771 293.625579,83.6736107 295.536493,83.9804321 C297.223563,84.2513126 298.904435,84.5496732 300.578612,84.875332 Z M285.372664,82.6890858 C287.29946,82.8700075 288.715317,84.5844907 288.535069,86.5184912 C288.354821,88.4524918 286.646725,89.8736429 284.71993,89.6927212 C283.098522,89.5404748 281.472505,89.414459 279.842302,89.3148043 C277.910673,89.1967233 276.440145,87.5292495 276.557786,85.5903974 C276.675428,83.6515453 278.336689,82.1755186 280.268318,82.2935996 C281.974198,82.3978805 283.675798,82.5297539 285.372664,82.6890858 Z M270.005565,82.0000248 C271.94076,81.9928139 273.515369,83.56162 273.522553,85.5040511 C273.529737,87.4464822 271.966775,89.0269793 270.031581,89.0341901 C268.398365,89.0402757 266.768354,89.0726162 265.141945,89.1311037 C263.207978,89.2006513 261.584018,87.683378 261.51473,85.7421789 C261.445441,83.8009798 262.957062,82.1709476 264.891029,82.1014 C266.592371,82.0402179 268.297359,82.0063898 270.005565,82.0000248 Z M254.668695,82.8021016 C256.594105,82.6068897 258.31262,84.0153295 258.507104,85.9479399 C258.701589,87.8805503 257.298396,89.6054911 255.372986,89.800703 C253.74887,89.9653675 252.129647,90.1563736 250.515761,90.3735741 C248.597717,90.6317089 246.834355,89.2802724 246.577182,87.3550563 C246.320009,85.4298401 247.666411,83.6598846 249.584455,83.4017498 C251.273843,83.1743881 252.968747,82.9744545 254.668695,82.8021016 Z M196.263869,100.792084 C197.966708,99.8692064 200.092485,100.506652 201.011925,102.215858 C201.931365,103.925065 201.296294,106.058791 199.593455,106.981669 C198.159098,107.759039 196.737571,108.559907 195.329418,109.383914 C193.657576,110.362224 191.512157,109.794936 190.537492,108.116842 C189.562827,106.438747 190.128001,104.285306 191.799844,103.306997 C193.274015,102.444358 194.762214,101.605928 196.263869,100.792084 Z M183.098129,108.79034 C184.702535,107.704207 186.880368,108.129214 187.962454,109.73962 C189.044541,111.350026 188.621117,113.536002 187.016711,114.622135 C185.664865,115.537292 184.327931,116.47455 183.006452,117.433493 C181.438165,118.571533 179.247689,118.217996 178.113888,116.643844 C176.980087,115.069692 177.332308,112.871025 178.900595,111.732985 C180.283767,110.729275 181.683133,109.748248 183.098129,108.79034 Z M170.846091,117.986064 C172.337751,116.748578 174.546423,116.959149 175.779298,118.456386 C177.012174,119.953624 176.802388,122.170555 175.310728,123.40804 C174.053964,124.450656 172.814118,125.513748 171.591712,126.596853 C170.1409,127.882335 167.926577,127.74391 166.645885,126.287673 C165.365192,124.831435 165.503101,122.608833 166.953913,121.323351 C168.233227,120.189824 169.530801,119.077233 170.846091,117.986064 Z M159.490243,128.383232 C160.854697,127.005769 163.073301,126.999359 164.445632,128.368916 C165.817964,129.738473 165.824349,131.965373 164.459894,133.342836 C163.310179,134.503513 162.179303,135.682865 161.067756,136.880387 C159.748582,138.301595 157.531356,138.380311 156.115442,137.056204 C154.699529,135.732097 154.621106,133.50658 155.94028,132.085372 C157.103546,130.832131 158.287036,129.597909 159.490243,128.383232 Z" id="Oval-2" fill="#6BBE0F" fill-rule="nonzero"></path>
        <g id="Group" transform="translate(206.000000, 73.000000)">
            <path d="M13,0 L21,0 C23.7614237,-5.07265313e-16 26,2.23857625 26,5 L26,27 C26,29.7614237 23.7614237,32 21,32 L13,32 C10.2385763,32 8,29.7614237 8,27 L8,5 C8,2.23857625 10.2385763,5.07265313e-16 13,0 Z" id="Rectangle-11" stroke="#ACACAC" stroke-width="7"></path>
            <path d="M3,14 L31,14 C32.6568542,14 34,15.3431458 34,17 L34,37 C34,38.6568542 32.6568542,40 31,40 L3,40 C1.34314575,40 2.41027941e-15,38.6568542 0,37 L0,17 C-2.02906125e-16,15.3431458 1.34314575,14 3,14 Z" id="Rectangle-11" fill="#F5A623"></path>
        </g>
        <g id="Group" transform="translate(153.000000, 326.000000)">
            <path d="M13,0 L21,0 C23.7614237,-5.07265313e-16 26,2.23857625 26,5 L26,27 C26,29.7614237 23.7614237,32 21,32 L13,32 C10.2385763,32 8,29.7614237 8,27 L8,5 C8,2.23857625 10.2385763,5.07265313e-16 13,0 Z" id="Rectangle-11" stroke="#4A8608" stroke-width="7"></path>
            <path d="M3,14 L31,14 C32.6568542,14 34,15.3431458 34,17 L34,37 C34,38.6568542 32.6568542,40 31,40 L3,40 C1.34314575,40 2.41027941e-15,38.6568542 0,37 L0,17 C-2.02906125e-16,15.3431458 1.34314575,14 3,14 Z" id="Rectangle-11" fill="#6BBE0F"></path>
        </g>
        <g id="Group" transform="translate(407.000000, 227.000000)">
            <path d="M13,0 L21,0 C23.7614237,-5.07265313e-16 26,2.23857625 26,5 L26,27 C26,29.7614237 23.7614237,32 21,32 L13,32 C10.2385763,32 8,29.7614237 8,27 L8,5 C8,2.23857625 10.2385763,5.07265313e-16 13,0 Z" id="Rectangle-11" stroke="#ACACAC" stroke-width="7"></path>
            <path d="M3,14 L31,14 C32.6568542,14 34,15.3431458 34,17 L34,37 C34,38.6568542 32.6568542,40 31,40 L3,40 C1.34314575,40 2.02906125e-16,38.6568542 0,37 L0,17 C-2.02906125e-16,15.3431458 1.34314575,14 3,14 Z" id="Rectangle-11" fill="#F5A623"></path>
        </g>
        <g id="Group" transform="translate(407.000000, 227.000000)">
            <path d="M13,0 L21,0 C23.7614237,-5.07265313e-16 26,2.23857625 26,5 L26,27 C26,29.7614237 23.7614237,32 21,32 L13,32 C10.2385763,32 8,29.7614237 8,27 L8,5 C8,2.23857625 10.2385763,5.07265313e-16 13,0 Z" id="Rectangle-11" stroke="#4A8608" stroke-width="7"></path>
            <path d="M3,14 L31,14 C32.6568542,14 34,15.3431458 34,17 L34,37 C34,38.6568542 32.6568542,40 31,40 L3,40 C1.34314575,40 2.41027941e-15,38.6568542 0,37 L0,17 C-2.02906125e-16,15.3431458 1.34314575,14 3,14 Z" id="Rectangle-11" fill="#6BBE0F"></path>
        </g>
        <g id="path3315-Clipped" transform="translate(188.000000, 150.000000)" fill="#FFFFFF" fill-rule="nonzero" opacity="0.102232143">
            <path d="M60.6054533,7.36188841 C60.1515299,7.36188841 59.6522141,7.54869536 59.1441691,7.83719862 C60.3405192,7.48715382 60.9031224,7.36188841 60.6054533,7.36188841 Z M90.2278852,13.1385005 L90.5233719,8.80658702 L85.9522757,9.09247148 L86.5554701,13.1385005 L90.2278852,13.1385005 Z M38.6211561,88.0262638 C37.6989059,87.1585717 38.3160672,83.3962448 38.3160672,83.3962448 C38.3160672,83.3962448 24.5726625,76.1749342 9.61108446,71.832982 C7.76614761,71.2983126 8.69843649,67.4980132 10.5237324,66.0585522 L9.9183557,62.0007387 C9.61588557,59.9833982 12.9757919,50.1515913 16.3335158,49.2908827 C19.6938586,48.417953 16.0258081,55.0674948 16.0258081,55.0674948 L12.6702665,57.0913822 C12.6702665,57.0913822 16.6386048,61.7144177 17.5582362,61.7144177 C18.4713206,61.7144177 19.998511,59.3967895 19.998511,59.3967895 L15.7255203,56.5143757 L19.6934221,54.7737539 L19.9439529,53.2509281 L20.6108712,53.0383698 L27.1849045,43.0830434 C31.7271941,41.2245761 37.3104522,38.9213512 38.0197076,38.5830909 C39.2444279,38.0087032 47.7908458,33.0971644 49.3184727,31.9431514 C50.8504643,30.7795362 54.2012048,31.0754593 55.421124,31.0754593 C56.6484632,31.0754593 58.4763779,30.4936517 58.7810303,27.3083313 C59.0861193,24.1304309 60.3086573,23.551242 61.2282887,24.4211165 C62.1457377,25.2796428 60.3086573,26.7313248 62.4486443,27.3083313 C64.5842668,27.890139 66.4169826,29.335274 67.9467919,27.890139 C69.0628324,26.8330211 67.5683768,25.6266323 66.5631983,24.7166031 L83.5181113,24.7166031 L85.3534459,19.5021578 L81.3829253,18.9255877 L66.7194527,17.4830715 L66.7194527,15.7450685 L65.5514728,15.9440964 C67.1380225,7.22047381 76.5660994,8.65862544 69.4674353,3.6100367 C69.037081,3.30014667 62.8274958,13.3947054 61.2457473,13.1991691 C58.381665,12.8203176 54.6861173,12.7897651 53.8987347,13.7216175 C52.852965,14.9511389 56.2394956,9.4931462 59.1528984,7.83850801 C55.6768924,8.86245451 49.4485393,5.69852093 38.2182991,13.6317058 C34.4206186,16.3159645 24.8882266,27.1909223 20.9657171,31.3718189 C4.3940203,50.9367916 3.05800144,67.6747815 3.05800144,68.4172082 C3.05800144,69.8619068 6.56717871,70.6776596 6.86964884,72.4182813 C7.17692008,74.1423174 1.06903119,79.9333328 1.06903119,82.8231665 C1.06903119,84.1517655 -1.98840497,98.5856575 4.72704297,116.647445 C10.6834786,133.781745 22.2092054,148.893031 23.6892577,149.83885 L27.9338782,147.587564 C27.9338782,147.587564 20.9107225,135.154427 20.6082524,133.995613 C20.3057823,132.840291 28.5466748,116.070875 32.5215601,116.656175 C36.4894619,117.219214 35.5741951,118.388067 38.0170888,116.939877 C40.4621648,115.503034 41.9871729,103.636865 44.7351555,102.487217 C47.4853204,101.324911 50.5357732,99.8819581 50.2328666,96.9912515 C49.9146837,94.0913791 39.5338041,88.8917736 38.6211561,88.0262638 Z M104.884811,3.02255503 L96.640863,0.130539044 L98.1684899,4.760558 L104.884811,3.02255503 Z M74.0415868,13.7207446 C74.9612182,13.7207446 93.2783379,1.58265755 91.4482408,1.28978964 C89.6203261,1.00390518 89.3152372,1.28978964 84.4202841,0.710600808 C79.5419166,0.133594298 74.3449299,7.65082813 73.1267565,8.81226106 C71.903782,9.96758347 72.3153684,13.7207446 74.0415868,13.7207446 Z M158.117808,100.896302 L160.483447,97.8275181 L158.117808,96.9960526 L156.344888,99.2237691 L154.278663,102.287752 L156.046346,103.120964 L158.117808,100.896302 Z M168.45635,110.932811 L167.864504,106.468649 L164.03016,106.468649 L163.732491,109.811533 L160.180104,109.257659 L159.300191,105.635001 L157.526834,104.518088 L155.455809,107.025578 L153.389148,106.472141 L152.792937,108.415282 L155.162068,108.983123 L155.162068,127.087248 L163.524298,129.101533 C163.330071,129.43281 163.187783,129.716948 163.140645,129.867965 C162.545307,131.822018 165.500174,132.667887 167.568144,131.822018 C168.333267,131.51431 173.153585,129.660644 174.680339,126.024456 C176.809851,120.959281 178.185151,113.66639 178.554837,111.305989 L177.618184,109.257659 L171.706267,111.49105 L168.447621,110.932375 L168.45635,110.932375 L168.45635,110.932811 Z M165.495809,36.7857287 C151.975002,16.2836661 119.488051,2.88594154 119.488051,2.88594154 L111.122766,7.26761201 L109.934709,5.3240341 L106.98377,4.20537473 L106.98377,6.71635692 L109.642277,8.94887455 L107.873285,9.78339531 L101.07229,10.3368327 L85.7039272,18.698626 L87.1796148,25.3861402 L85.4010206,25.946561 L84.5215439,27.337138 L89.5461271,34.8543718 L89.838995,37.3679728 L85.7030542,38.2029301 L85.7030542,43.2161651 L83.3409066,43.7717849 L83.6363932,47.6755263 L63.5336959,61.6153402 L64.1251058,69.4071104 C65.6003569,71.3602906 77.1308849,83.0654045 77.1308849,83.0654045 C77.1308849,83.0654045 90.4273496,83.6166596 93.3835259,81.9519827 C96.3414481,80.2798859 94.2673672,83.6240795 95.1590649,84.4607826 C96.038978,85.3001044 96.3414481,91.1482967 97.2209247,91.7065353 C98.1104401,92.2612821 97.2209247,95.601111 98.403308,96.7267538 C99.5861277,97.8327557 99.5861277,111.213022 99.5861277,111.213022 C99.5861277,111.213022 106.679554,123.191799 106.679554,126.257092 C106.679554,129.321511 106.381449,129.04261 111.999624,128.763273 C117.613871,128.489173 118.795818,126.257092 119.978638,125.424753 C121.161021,124.591978 121.161021,122.638798 122.342968,120.960154 C123.534953,119.284566 125.596813,112.885991 128.259685,110.658711 C130.912518,108.421393 138.011619,106.747986 138.597791,102.855157 C139.189637,98.9492327 141.846399,95.8839402 141.846399,95.8839402 L154.625216,82.3674972 L154.266006,84.1836274 L153.973138,91.1452415 L157.818393,89.7542281 L157.525089,82.2252097 L156.148478,80.7661077 L156.343142,80.5535494 C156.343142,80.5535494 155.454063,78.8814526 154.276917,78.8814526 C153.093225,78.8814526 145.995433,80.5535494 144.817851,80.2763942 C143.634595,79.9953108 138.60783,66.6185366 137.723988,66.0699003 C136.834037,65.5116618 131.225463,56.3109831 131.225463,56.3109831 C131.225463,56.3109831 144.22164,71.9150374 146.292666,78.0447495 C147.493381,81.6150318 152.005554,78.2904792 155.675351,74.5661248 L156.645175,76.9356924 L159.005141,76.3726527 L158.712273,73.5875706 L161.369471,73.5875706 L161.369471,77.7658485 L160.486066,79.9983661 L160.183159,83.6166596 L162.552727,85.8509231 L163.735547,83.9047264 L167.565962,80.2772671 L172.001318,78.0478048 L173.188938,80.2772671 L173.779912,83.3443055 L172.597529,86.6854438 L170.233199,88.6364416 L169.051252,93.651859 L169.051252,96.1584766 L166.392745,94.4841975 L166.099877,89.1951166 L162.258986,89.4779458 L160.490867,94.2100976 L163.148501,98.1155849 L169.353286,98.9535974 L174.375686,94.2100976 L174.96666,85.0251316 L177.204415,82.0720105 C178.660898,85.8151329 179.701867,89.7310954 179.701867,93.3825602 C179.701867,97.3836334 182.870165,91.362601 181.319842,79.1612265 C181.321151,79.1607901 178.890042,50.1790886 165.495809,36.7857287 Z M106.388432,48.790694 L90.4308413,48.2259085 L97.2222341,42.6570537 L100.769384,42.6570537 L106.388432,46.5538117 L106.388432,48.790694 Z M125.901029,46.8401327 L125.901029,49.3467502 L119.105708,49.3467502 L119.696681,51.0232116 L115.553321,51.5858148 L115.265254,52.9689719 L112.309514,52.420772 L106.984643,51.2999303 L107.874158,49.9115357 L108.763237,48.2328919 L111.718541,45.1680359 L112.905725,47.4005535 L117.332351,47.1185972 L119.697118,44.6071786 L128.862443,46.2814577 L125.901029,46.8401327 Z M126.488074,43.2152922 L122.940488,43.7709119 L122.354316,41.2599298 L126.781379,40.7064923 L127.37759,38.1998748 L130.630998,41.5458142 L126.488074,43.2104911 L126.488074,43.2152922 Z M143.636341,129.868838 L141.564879,131.543554 L141.859056,135.72445 L144.516254,135.72445 L144.516254,132.111394 L146.891059,129.037373 L146.891059,122.63356 L145.405333,122.344621 L143.636341,129.868838 Z M123.834368,121.517083 C123.834368,121.517083 121.762906,122.055681 124.123308,122.907224 C126.488074,123.749601 135.94714,109.258532 135.94714,109.258532 L127.963762,114.272204 L123.829567,121.51752 L123.834368,121.51752 L123.834368,121.517083 Z M107.745401,174.921175 L105.976846,173.237293 L102.429696,172.67469 L101.843524,174.363373 L97.1139909,173.805571 L96.8167583,171.564324 L93.2713545,171.564324 L89.4313368,173.805571 L82.639944,173.805571 L82.0485342,172.122562 L71.1190183,170.992118 L69.3456616,172.679928 L64.9207812,171.564324 L64.3276255,167.629157 L62.2609645,167.340653 L59.896198,171.564324 L51.9206761,171.280621 C53.348789,171.951904 65.2551132,179.060171 83.5220395,180.539786 C107.745838,182.498204 119.266764,176.615531 119.266764,176.615531 L118.382922,175.763988 L107.745838,174.926849 L107.745838,174.921175 L107.745401,174.921175 Z" id="path3315"></path>
        </g>
        <g id="Group-2" transform="translate(74.000000, 87.000000)" fill="#C07B09" fill-rule="nonzero">
            <path d="M22.63774,26.0262061 C21.92434,26.0476474 21.21094,26.0595593 20.50082,26.0595593 C19.78824,26.0595593 19.07238,26.0484415 18.35734,26.0262061 C12.33772,25.8665873 7.54072,25.0430812 4.08688,23.8685726 C2.46328,23.3380981 1.07338,22.713917 0,22 L0,27.6470121 L0,28.0440739 L0,28.4411356 L0,29.4647608 C2.33372,31.8241016 10.16308,34 20.5,34 C30.83692,34 38.66628,31.8241016 41,29.4647608 L41,28.4411356 L41,28.0440739 L41,27.6470121 L41,22 C39.91924,22.7186818 38.51704,23.3476276 36.8795,23.8796903 C33.4273,25.0486401 28.64014,25.8673814 22.63774,26.0262061 Z" id="Shape"></path>
            <path d="M0,12 L0,17.6470121 L0,18.0440739 L0,18.4411356 L0,19.4647608 C2.16316,21.6517769 9.04706,23.6815565 18.27452,23.9658527 C18.36882,23.9690292 18.46558,23.9698233 18.5607,23.9722057 C18.82802,23.9793528 19.09452,23.9864999 19.36594,23.9904705 C19.74068,23.9968235 20.1187,24 20.5,24 C20.8813,24 21.25932,23.9968235 21.63406,23.9912646 C21.90466,23.987294 22.17198,23.9801469 22.4393,23.9729998 C22.53442,23.9706174 22.63118,23.9690292 22.72548,23.9666468 C31.95294,23.6815565 38.83684,21.6517769 41,19.4655549 L41,18.4411356 L41,18.0440739 L41,17.6470121 L41,12 C37.00906,14.6547548 28.57208,16.0587651 20.5,16.0587651 C12.42792,16.0587651 3.99176,14.6547548 0,12 Z" id="Shape"></path>
            <path d="M40.8893,7.03458824 C39.96926,3.49258824 32.8943,0 20.5,0 C8.13686,0 1.06928,3.47529412 0.12054,7.00823529 C0.05084,7.12929412 0,7.26188235 0,7.41176471 L0,7.82352941 L0,9.31082353 C2.32634,11.7492941 10.09994,14 20.5,14 C30.90006,14 38.67448,11.7492941 41,9.31082353 L41,7.82352941 L41,7.41176471 C41,7.27341176 40.95408,7.14905882 40.8893,7.03458824 Z" id="Shape"></path>
            <path d="M0,32 L0,38.6748445 C0,38.8066973 0.03526,38.9312249 0.09594,39.0419162 C1.06436,43.0259869 9.72848,46 20.5,46 C31.24692,46 39.8971,43.0381955 40.8975,39.0687751 C40.9631,38.9515726 41,38.8172781 41,38.6748445 L41,32.0016278 C37.6093,34.3709087 30.6229,36.233126 20.5,36.233126 C10.37628,36.233126 3.38988,34.3692809 0,32 Z" id="Shape"></path>
        </g>
        <g id="Group-3" transform="translate(423.000000, 152.000000)">
            <polygon id="Path-7" fill="#F5A623" points="13.4395562 0 0 5.99757183 13.4395562 13 27 5.99757183"></polygon>
            <polygon id="Rectangle-4" fill="#DC9012" points="0 7 13 13.6666667 13 29 0 22.3333333"></polygon>
            <polygon id="Rectangle-4" fill="#C07B09" transform="translate(20.500000, 18.000000) scale(-1, 1) translate(-20.500000, -18.000000) " points="14 7 27 13.6666667 27 29 14 22.3333333"></polygon>
        </g>
        <path d="M488.308167,165.860172 L485.235197,163.114603 C485.095377,162.989484 484.915608,162.920452 484.729694,162.920452 L469.788533,162.920452 C468.448334,159.956022 465.494442,158 462.276275,158 C457.712531,158 454,161.790847 454,166.45047 C454,171.110485 457.712531,174.901332 462.275891,174.901332 C465.494058,174.901332 468.44795,172.94531 469.788148,169.980487 L471.84819,169.980487 C471.963811,169.980487 472.077895,169.9546 472.181607,169.902827 L473.443445,168.812847 L474.704899,169.902827 C474.916166,170.006766 475.161235,170.006766 475.371734,169.902827 L476.633572,168.812847 L477.896178,169.902827 C478.106292,170.006766 478.352514,170.006766 478.562244,169.902827 L479.824082,168.812847 L481.08592,169.902827 C481.296803,170.006766 481.542256,170.006766 481.752755,169.902827 L483.014593,168.812847 L484.276431,169.902827 C484.383216,169.9546 484.496532,169.980487 484.611769,169.980487 L484.729694,169.980487 C484.915608,169.980487 485.095377,169.911456 485.235197,169.786336 L488.308167,167.040767 C488.475259,166.891722 488.570905,166.676783 488.570905,166.45047 C488.570905,166.224156 488.475259,166.009217 488.308167,165.860172 Z M458.321363,168.140799 C457.181651,168.140799 456.254624,167.213855 456.254624,166.075081 C456.254624,164.935931 457.181651,164.009362 458.321363,164.009362 C459.461076,164.009362 460.388102,164.935931 460.388102,166.075081 C460.388102,167.213855 459.461076,168.140799 458.321363,168.140799 Z" id="Shape" fill="#DC9012" fill-rule="nonzero"></path>
        <g id="Group-3" transform="translate(167.000000, 403.000000)">
            <polygon id="Path-7" fill="#F5A623" points="13.4395562 0 0 5.99757183 13.4395562 13 27 5.99757183"></polygon>
            <polygon id="Rectangle-4" fill="#DC9012" points="0 7 13 13.6666667 13 29 0 22.3333333"></polygon>
            <polygon id="Rectangle-4" fill="#C07B09" transform="translate(20.500000, 18.000000) scale(-1, 1) translate(-20.500000, -18.000000) " points="14 7 27 13.6666667 27 29 14 22.3333333"></polygon>
        </g>
        <path d="M232.308167,416.860172 L229.235197,414.114603 C229.095377,413.989484 228.915608,413.920452 228.729694,413.920452 L213.788533,413.920452 C212.448334,410.956022 209.494442,409 206.276275,409 C201.712531,409 198,412.790847 198,417.45047 C198,422.110485 201.712531,425.901332 206.275891,425.901332 C209.494058,425.901332 212.44795,423.94531 213.788148,420.980487 L215.84819,420.980487 C215.963811,420.980487 216.077895,420.9546 216.181607,420.902827 L217.443445,419.812847 L218.704899,420.902827 C218.916166,421.006766 219.161235,421.006766 219.371734,420.902827 L220.633572,419.812847 L221.896178,420.902827 C222.106292,421.006766 222.352514,421.006766 222.562244,420.902827 L223.824082,419.812847 L225.08592,420.902827 C225.296803,421.006766 225.542256,421.006766 225.752755,420.902827 L227.014593,419.812847 L228.276431,420.902827 C228.383216,420.9546 228.496532,420.980487 228.611769,420.980487 L228.729694,420.980487 C228.915608,420.980487 229.095377,420.911456 229.235197,420.786336 L232.308167,418.040767 C232.475259,417.891722 232.570905,417.676783 232.570905,417.45047 C232.570905,417.224156 232.475259,417.009217 232.308167,416.860172 Z M202.321363,419.140799 C201.181651,419.140799 200.254624,418.213855 200.254624,417.075081 C200.254624,415.935931 201.181651,415.009362 202.321363,415.009362 C203.461076,415.009362 204.388102,415.935931 204.388102,417.075081 C204.388102,418.213855 203.461076,419.140799 202.321363,419.140799 Z" id="Shape" fill="#DC9012" fill-rule="nonzero"></path>
        <g id="Group-4" transform="translate(176.000000, 138.000000)" fill="#DC9012">
            <polygon id="Rectangle-12" points="0 0 14.0061704 0 21 7.95500409 21 28 0 28"></polygon>
        </g>
        <g id="Group-4" transform="translate(202.000000, 138.000000)" fill="#DC9012">
            <polygon id="Rectangle-12" points="0 0 14.0061704 0 21 7.95500409 21 28 0 28"></polygon>
        </g>
        <g id="Group-5" transform="translate(233.000000, 295.000000)">
            <rect id="Rectangle-13" stroke="#DC9012" stroke-width="4" x="2" y="2" width="75" height="26" rx="3"></rect>
            <path d="M13.6524086,20 L13.9276215,15.5654952 L10.2188,17.9936102 L9,15.9233227 L13.0233506,14.0063898 L9,12.0638978 L10.2188,10.0319489 L13.9276215,12.4472843 L13.6524086,8 L16.1162194,8 L15.7754796,12.4472843 L19.5629334,10.0319489 L20.7948388,12.0638978 L16.7583828,14.0063898 L20.7948388,15.9233227 L19.5629334,17.9936102 L15.7754796,15.5654952 L16.1162194,20 L13.6524086,20 Z M28.7549892,20 L29.0302021,15.5654952 L25.3213806,17.9936102 L24.1025806,15.9233227 L28.1259312,14.0063898 L24.1025806,12.0638978 L25.3213806,10.0319489 L29.0302021,12.4472843 L28.7549892,8 L31.2188,8 L30.8780602,12.4472843 L34.665514,10.0319489 L35.8974194,12.0638978 L31.8609634,14.0063898 L35.8974194,15.9233227 L34.665514,17.9936102 L30.8780602,15.5654952 L31.2188,20 L28.7549892,20 Z M43.8575699,20 L44.1327828,15.5654952 L40.4239613,17.9936102 L39.2051612,15.9233227 L43.2285118,14.0063898 L39.2051612,12.0638978 L40.4239613,10.0319489 L44.1327828,12.4472843 L43.8575699,8 L46.3213806,8 L45.9806408,12.4472843 L49.7680946,10.0319489 L51,12.0638978 L46.9635441,14.0063898 L51,15.9233227 L49.7680946,17.9936102 L45.9806408,15.5654952 L46.3213806,20 L43.8575699,20 Z" id="***" stroke="#C07B09" fill="#DC9012"></path>
            <path d="M56.5,20.5 L67.5,20.5" id="Line-6" stroke="#DC9012" stroke-width="4" stroke-linecap="square"></path>
        </g>
        <path d="M437,330 C432.584,330 429,333.776 429,338.428571 C429,341.537858 430.619125,344.227297 433,345.690378 L433,373.311663 C430.619125,374.772703 429,377.4601 429,380.571429 C429,385.221959 432.584,389 437,389 C441.416,389 445,385.221959 445,380.571429 C445,377.4601 443.38475,374.772703 441,373.311663 L441,345.690378 C443.38475,344.227297 445,341.537858 445,338.428571 C445,333.776 441.416,330 437,330 Z M437.5,386 C435.017125,386 433,383.987305 433,381.5 C433,379.017125 435.017125,377 437.5,377 C439.989484,377 442,379.017125 442,381.5 C442,383.987305 439.989484,386 437.5,386 Z M437.5,344 C435.017125,344 433,341.989484 433,339.5 C433,337.010516 435.017125,335 437.5,335 C439.989484,335 442,337.010516 442,339.5 C442,341.989484 439.989484,344 437.5,344 Z M475.625,373.364844 L475.625,347 C475.625,334.367188 462.5,334.4 462.5,334.4 L458.125,334.4 L458.125,326 L445,338.6 L458.125,351.2 L458.125,342.8 C458.125,342.8 459.949375,342.8 462.5,342.8 C466.358066,342.8 466.875,347 466.875,347 L466.875,373.364844 C464.268799,374.820931 462.5,377.49515 462.5,380.6 C462.5,385.234766 466.422119,389 471.25,389 C476.077881,389 480,385.234766 480,380.6 C480,377.499219 478.231201,374.820931 475.625,373.364844 Z M471.5,386 C469.017125,386 467,383.987305 467,381.5 C467,379.017125 469.017125,377 471.5,377 C473.987305,377 476,379.017125 476,381.5 C476,383.987305 473.987305,386 471.5,386 Z" id="Shape" fill="#DC9012" fill-rule="nonzero"></path>
        <g id="Group-6" transform="translate(74.000000, 360.000000)">
            <path d="M19.8721262,7.67047015 L25.6715729,1.87102351 C27.23367,0.308926347 29.76633,0.308926347 31.3284271,1.87102351 L37.1278738,7.67047015 L45.3295298,7.67047015 C47.5386688,7.67047015 49.3295298,9.46133115 49.3295298,11.6704702 L49.3295298,19.8721262 L55.1289765,25.6715729 C56.6910737,27.23367 56.6910737,29.76633 55.1289765,31.3284271 L49.3295298,37.1278738 L49.3295298,45.3295298 C49.3295298,47.5386688 47.5386688,49.3295298 45.3295298,49.3295298 L37.1278738,49.3295298 L31.3284271,55.1289765 C29.76633,56.6910737 27.23367,56.6910737 25.6715729,55.1289765 L19.8721262,49.3295298 L11.6704702,49.3295298 C9.46133115,49.3295298 7.67047015,47.5386688 7.67047015,45.3295298 L7.67047015,37.1278738 L1.87102351,31.3284271 C0.308926347,29.76633 0.308926347,27.23367 1.87102351,25.6715729 L7.67047015,19.8721262 L7.67047015,11.6704702 C7.67047015,9.46133115 9.46133115,7.67047015 11.6704702,7.67047015 L19.8721262,7.67047015 Z" id="Combined-Shape" fill="#5D9E12"></path>
            <polygon id="Path-2" fill="#FFFFFF" fill-rule="nonzero" points="39.1112643 16 44 21.1867723 22.367017 41 13 32.4209316 17.8887357 27.2341592 22.367017 31.2408453"></polygon>
        </g>
        <g id="Group-6" transform="translate(287.000000, 38.000000)">
            <path d="M10.9801462,3.88100081 L13.1715729,1.68957411 C14.73367,0.127476948 17.26633,0.127476948 18.8284271,1.68957411 L21.0198538,3.88100081 L24.1189992,3.88100081 C26.3281382,3.88100081 28.1189992,5.67186182 28.1189992,7.88100081 L28.1189992,10.9801462 L30.3104259,13.1715729 C31.8725231,14.73367 31.8725231,17.26633 30.3104259,18.8284271 L28.1189992,21.0198538 L28.1189992,24.1189992 C28.1189992,26.3281382 26.3281382,28.1189992 24.1189992,28.1189992 L21.0198538,28.1189992 L18.8284271,30.3104259 C17.26633,31.8725231 14.73367,31.8725231 13.1715729,30.3104259 L10.9801462,28.1189992 L7.88100081,28.1189992 C5.67186182,28.1189992 3.88100081,26.3281382 3.88100081,24.1189992 L3.88100081,21.0198538 L1.68957411,18.8284271 C0.127476948,17.26633 0.127476948,14.73367 1.68957411,13.1715729 L3.88100081,10.9801462 L3.88100081,7.88100081 C3.88100081,5.67186182 5.67186182,3.88100081 7.88100081,3.88100081 L10.9801462,3.88100081 Z" id="Combined-Shape" fill="#5D9E12"></path>
            <polygon id="Path-2" fill="#FFFFFF" fill-rule="nonzero" points="22.1613792 9 25 11.9045925 12.4389131 23 7 18.1957217 9.83862076 15.2911292 12.4389131 17.5348734"></polygon>
        </g>
        <g id="Group-6" transform="translate(468.000000, 304.000000)">
            <path d="M10.9801462,3.88100081 L13.1715729,1.68957411 C14.73367,0.127476948 17.26633,0.127476948 18.8284271,1.68957411 L21.0198538,3.88100081 L24.1189992,3.88100081 C26.3281382,3.88100081 28.1189992,5.67186182 28.1189992,7.88100081 L28.1189992,10.9801462 L30.3104259,13.1715729 C31.8725231,14.73367 31.8725231,17.26633 30.3104259,18.8284271 L28.1189992,21.0198538 L28.1189992,24.1189992 C28.1189992,26.3281382 26.3281382,28.1189992 24.1189992,28.1189992 L21.0198538,28.1189992 L18.8284271,30.3104259 C17.26633,31.8725231 14.73367,31.8725231 13.1715729,30.3104259 L10.9801462,28.1189992 L7.88100081,28.1189992 C5.67186182,28.1189992 3.88100081,26.3281382 3.88100081,24.1189992 L3.88100081,21.0198538 L1.68957411,18.8284271 C0.127476948,17.26633 0.127476948,14.73367 1.68957411,13.1715729 L3.88100081,10.9801462 L3.88100081,7.88100081 C3.88100081,5.67186182 5.67186182,3.88100081 7.88100081,3.88100081 L10.9801462,3.88100081 Z" id="Combined-Shape" fill="#5D9E12"></path>
            <polygon id="Path-2" fill="#FFFFFF" fill-rule="nonzero" points="22.1613792 9 25 11.9045925 12.4389131 23 7 18.1957217 9.83862076 15.2911292 12.4389131 17.5348734"></polygon>
        </g>
        <rect id="Rectangle-14" fill="#DC9012" x="39" y="271" width="53" height="68" rx="3"></rect>
        <rect id="Rectangle-14" fill="#DC9012" x="47" y="271" width="53" height="20" rx="3"></rect>
        <path d="M94.1083984,293 L97.0466309,293 C98.7034851,293 100.046631,294.343146 100.046631,296 L100.046631,310 C100.046631,311.656854 98.7034851,313 97.0466309,313 L94,313 L94.1083984,293 Z" id="Rectangle-14" fill="#DC9012"></path>
        <path d="M94.1083984,315 L97.0466309,315 C98.7034851,315 100.046631,316.343146 100.046631,318 L100.046631,332 C100.046631,333.656854 98.7034851,335 97.0466309,335 L94,335 L94.1083984,315 Z" id="Rectangle-14" fill="#DC9012"></path>
        <circle id="Oval-4" fill="#D8D8D8" cx="66" cy="296" r="8"></circle>
        <path d="M50.0000034,321.510037 C50.0000013,321.506691 50.0000003,321.503346 50.0000003,321.5 C50.0000003,312.939586 56.9395866,306 65.5000003,306 C74.0604139,306 81.0000003,312.939586 81.0000003,321.5 C81.0000003,321.503346 80.9999992,321.506691 80.9999971,321.510037 C76.4958593,322.45473 71.1857778,323 65.5000003,323 C59.8142227,323 54.5041412,322.45473 50,321.510036 Z" id="Combined-Shape" fill="#D8D8D8"></path>
        <g id="Group" transform="translate(206.000000, 73.000000)">
            <path d="M13,0 L21,0 C23.7614237,-5.07265313e-16 26,2.23857625 26,5 L26,27 C26,29.7614237 23.7614237,32 21,32 L13,32 C10.2385763,32 8,29.7614237 8,27 L8,5 C8,2.23857625 10.2385763,5.07265313e-16 13,0 Z" id="Rectangle-11" stroke="#4A8608" stroke-width="7"></path>
            <path d="M3,14 L31,14 C32.6568542,14 34,15.3431458 34,17 L34,37 C34,38.6568542 32.6568542,40 31,40 L3,40 C1.34314575,40 2.41027941e-15,38.6568542 0,37 L0,17 C-2.02906125e-16,15.3431458 1.34314575,14 3,14 Z" id="Rectangle-11" fill="#6BBE0F"></path>
        </g>
    </g>
</svg>