<svg enable-background="new 0 0 122 81" height="81" viewBox="0 0 122 81" width="122" xmlns="http://www.w3.org/2000/svg"><path d="m43.761 78.022.507-9.019c.023-.409.195-.796.483-1.083l23.156-23.156c-2.517-6.671-.969-14.281 4.018-19.269 7.073-7.073 18.702-6.952 25.924.27 7.223 7.222 7.345 18.852.271 25.922-4.989 4.989-12.597 6.536-19.271 4.02l-3.191 3.19c-.18.18-.396.316-.637.397l-3.646.265-.265 3.646c-.168.487-.548.868-1.034 1.034l-3.646.267-.267 3.646c-.165.486-.545.867-1.032 1.032l-3.646.267-.267 3.646c-.165.485-.546.865-1.032 1.03l-3.646.268-.267 3.644c-.085.246-.221.464-.399.642l-.183.182c-.288.289-.673.462-1.084.484l-9.018.505c-.49.028-.972-.155-1.322-.507s-.536-.834-.506-1.323zm50.009-42.939c1.767-1.767 1.767-4.641.002-6.405-1.766-1.766-4.639-1.765-6.405.001-1.767 1.767-1.767 4.64 0 6.405 1.763 1.766 4.635 1.766 6.403-.001z" fill="#b9d9ff" stroke="#2470c8" stroke-width="2"/><path d="m53.382 46.432c0 1.422-1.151 2.572-2.571 2.572h-40.455c-1.42 0-2.571-1.15-2.571-2.572v-40.454c0-1.42 1.151-2.571 2.571-2.571h40.455c1.42 0 2.571 1.151 2.571 2.571z" fill="#b9d9ff" stroke="#2470c8" stroke-width="2"/><path d="m16.285 21.205c0 .258-.31.467-.69.467h-10.872c-.381 0-.69-.209-.69-.467v-7.332c0-.257.31-.466.69-.466h10.871c.381 0 .69.208.69.466v7.332z" fill="#2470c8"/><path d="m12.785 9.668h35v33.25h-35z" fill="none" stroke="#2470c8" stroke-miterlimit="10" stroke-width="2"/><path d="m16.285 39.455c0 .258-.31.467-.69.467h-10.872c-.381 0-.69-.209-.69-.467v-7.332c0-.258.31-.466.69-.466h10.871c.381 0 .69.208.69.466v7.332z" fill="#2470c8"/><circle cx="31.154" cy="26.158" fill="none" r="10.88" stroke="#2470c8" stroke-miterlimit="10" stroke-width="2"/><path d="m31.154 15.279v5.639" fill="none" stroke="#2470c8" stroke-miterlimit="10" stroke-width="2"/><path d="m31.154 31.657v5.639" fill="none" stroke="#2470c8" stroke-miterlimit="10" stroke-width="2"/><path d="m27.206 29.664-3.988 3.986" fill="none" stroke="#2470c8" stroke-miterlimit="10" stroke-width="2"/><path d="m38.873 18.671-3.988 3.986" fill="none" stroke="#2470c8" stroke-miterlimit="10" stroke-width="2"/><path d="m34.657 30.133 3.986 3.987" fill="none" stroke="#2470c8" stroke-miterlimit="10" stroke-width="2"/><path d="m23.664 18.466 3.986 3.987" fill="none" stroke="#2470c8" stroke-miterlimit="10" stroke-width="2"/><path d="m20.274 26.159h5.639" fill="none" stroke="#2470c8" stroke-miterlimit="10" stroke-width="2"/><path d="m36.396 26.159h5.639" fill="none" stroke="#2470c8" stroke-miterlimit="10" stroke-width="2"/><g fill="#2470c8"><circle cx="31.128" cy="26.159" r="2.906"/><path d="m73.591 15.884-5.772-10-2.093 1.208 5.772 9.998c.676-.438 1.374-.838 2.093-1.206z"/><path d="m60.643 37.022c0-.408.041-.806.062-1.208h-11.562v2.416h11.56c-.02-.403-.06-.8-.06-1.208z"/><path d="m64.469 24.119-9.997-5.771-1.208 2.093 9.998 5.772c.368-.72.769-1.419 1.207-2.094z"/><path d="m105.538 26.213 9.998-5.773-1.208-2.093-9.997 5.772c.438.675.838 1.374 1.207 2.094z"/><path d="m84.399 13.264c.409 0 .807.041 1.209.062v-11.561h-2.416v11.56c.404-.02.799-.061 1.207-.061z"/><path d="m97.304 17.091 5.771-9.998-2.093-1.208-5.772 9.999c.719.369 1.418.769 2.094 1.207z"/><path d="m84.399 60.779c-.408 0-.804-.039-1.207-.061v11.561h2.416v-11.56c-.402.021-.799.06-1.209.06z"/><path d="m108.095 35.814c.021.402.062.8.062 1.208 0 .407-.04.805-.062 1.207h11.562v-2.416h-11.562z"/><path d="m104.332 49.925 9.996 5.772 1.208-2.093-9.998-5.774c-.369.721-.769 1.42-1.206 2.095z"/><path d="m95.21 58.161 5.772 9.998 2.093-1.208-5.771-9.998c-.676.439-1.375.837-2.094 1.208z"/></g></svg>