<svg height="81" viewBox="0 0 122 81" width="122" xmlns="http://www.w3.org/2000/svg"><g fill="none" fill-rule="evenodd"><g fill-rule="nonzero" stroke="#2470c8" stroke-width="2" transform="translate(47 8)"><path d="m27.2889792 26.0005195-23.27038763 23.2487202 11.59128133 11.459799 23.2726958-23.1673894z" fill="#b9d9ff"/><path d="m27.3968048 25.8527393 11.6189528 11.5601506 20.1892347-20.0870595c.3502757-.348503.5089471-.7168624.5089471-1.1567632 0-.3144543-.0636206-.5676488-.2135095-.8161993l-.405195-.6719073 4.3958181-4.3735714c.678596-.67516177.678596-1.63836477 0-2.31352654l-6.5183839-6.48539507c-.67616-.67273804-1.7185844-.67273804-2.3396817 0l-4.4556137 4.43306438-2.5804622-2.56740279c-2.4653736-2.45289667-6.2909731-2.45289667-8.6813929.00189848l-16.6065716 16.43369174c-.6733542.6699465-.6733542 1.6981321 0 2.3135266.3245081.3228657.7753274.5084676 1.1698409.5084676s.8453328-.1856019 1.1698408-.5084676l16.5191919-16.43559029c1.0977223-1.0921668 2.767782-1.0921668 4.0001163 0l1.2482618 1.24194451zm29.2989528-13.4258123-4.1858957-4.16471136 3.2929664-3.27630111 4.1858957 4.1647114z" fill="#b9d9ff"/><path d="m3.3389609 51.1087976-2.27913589 11.0719238c-.17391882.6777784.04675302 1.5162584.51532971 2.064085.36023038.4211557.72170683.6022754 1.14060533.6022754.10101502 0 .15052213-.0012885.19090007-.005397l.0458379-.0267952 11.64002038-3.3514414z" fill="#2470c8"/></g><path d="m34.9976058 8c-14.3555051 0-25.9976058 11.6405046-25.9976058 26.0007981 0 11.487277 7.449093 21.2315909 17.780779 24.6696338 1.300838.239418 1.7748857-.5634305 1.7748857-1.2529544 0-.6161024-.0223457-2.2521256-.0351147-4.4212529-7.2320206 1.5705822-8.7579115-3.4859266-8.7579115-3.4859266-1.1827251-3.0038982-2.8873814-3.8035544-2.8873814-3.8035544-2.3606618-1.6120814.1787654-1.580159.1787654-1.580159 2.6096566.1835538 3.9823199 2.6798858 3.9823199 2.6798858 2.3191627 3.9727432 6.0860064 2.8251328 7.5672059 2.1595507.2362258-1.6791185.9081924-2.8251328 1.6503883-3.4747537-5.7731668-.6560054-11.8432119-2.8873815-11.8432119-12.8503638 0-2.8379017 1.0135363-5.1602566 2.6766936-6.9766413-.2681482-.6576016-1.1603794-3.3023727.2553792-6.8808742 0 0 2.1818963-.6991007 7.1490224 2.6655207 2.0733601-.5777955 4.2983517-.8650971 6.5089782-.87627 2.2090303.0111729 4.4324258.2984745 6.5089781.87627 4.9639339-3.3646214 7.1426379-2.6655207 7.1426379-2.6655207 1.4189509 3.5785015.5267197 6.2232726.2601676 6.8808742 1.6663495 1.8163847 2.6719052 4.1387396 2.6719052 6.9766413 0 9.9885203-6.0796218 12.1863778-11.8703459 12.8296142.9321342.8028485 1.7637128 2.389392 1.7637128 4.8154947 0 3.4747536-.0319224 6.2791368-.0319224 7.131465 0 .6959084.4692594 1.5051414 1.7876547 1.2513583 10.3237054-3.4460236 17.7664139-13.1839529 17.7664139-24.6680377 0-14.3602935-11.6421007-26.0007981-26.0023942-26.0007981" fill="#2470c8"/></g></svg>